<?xml version="1.0" encoding="utf-8"?>
<!-- Generated by IcoMoon.io -->
<!DOCTYPE svg PUBLIC "-//W3C//DTD SVG 1.1//EN" "http://www.w3.org/Graphics/SVG/1.1/DTD/svg11.dtd">
<svg version="1.1" xmlns="http://www.w3.org/2000/svg" xmlns:xlink="http://www.w3.org/1999/xlink" width="512" height="512" viewBox="0 0 512 512">
<g>
</g>
	<path d="M348.916 163.524l-32.476-32.461-162.405 162.371c-26.907 26.896-26.907 70.524 0 97.422 26.902 26.896 70.53 26.896 97.437 0l194.886-194.854c44.857-44.831 44.857-117.531 0-162.363-44.833-44.852-117.556-44.852-162.391 0l-204.615 204.589c-0.145 0.152-0.306 0.288-0.438 0.423-62.551 62.548-62.551 163.928 0 226.453 62.527 62.528 163.934 62.528 226.494 0 0.137-0.137 0.258-0.284 0.41-0.438l0.016 0.017 139.666-139.646-32.493-32.46-139.665 139.631c-0.148 0.134-0.282 0.285-0.423 0.422-44.537 44.529-116.99 44.529-161.538 0-44.531-44.521-44.531-116.961 0-161.489 0.152-0.152 0.302-0.291 0.444-0.423l-0.023-0.030 204.64-204.583c26.856-26.869 70.572-26.869 97.443 0 26.856 26.867 26.856 70.574 0 97.42l-194.886 194.85c-8.968 8.961-23.527 8.961-32.486 0-8.947-8.943-8.947-23.516 0-32.46l162.403-162.391z" fill="#000000" />
</svg>
