<?xml version="1.0" encoding="utf-8"?>
<!-- Generated by IcoMoon.io -->
<!DOCTYPE svg PUBLIC "-//W3C//DTD SVG 1.1//EN" "http://www.w3.org/Graphics/SVG/1.1/DTD/svg11.dtd">
<svg version="1.1" xmlns="http://www.w3.org/2000/svg" xmlns:xlink="http://www.w3.org/1999/xlink" width="512" height="512" viewBox="0 0 512 512">
<g>
</g>
	<path d="M182.857 73.143h146.286v-36.572h-146.286v36.572zM512 256v137.143q0 18.857-13.428 32.286t-32.286 13.428h-420.572q-18.857 0-32.285-13.428t-13.428-32.286v-137.143h192v45.714q0 7.428 5.428 12.857t12.857 5.428h91.429q7.428 0 12.857-5.428t5.428-12.857v-45.714h192zM292.572 256v36.572h-73.143v-36.572h73.143zM512 118.857v109.715h-512v-109.715q0-18.857 13.428-32.285t32.285-13.428h100.572v-45.715q0-11.428 8-19.428t19.428-8h164.571q11.428 0 19.428 8t8 19.428v45.715h100.572q18.857 0 32.286 13.428t13.428 32.285z" fill="#000000" />
</svg>
