<?xml version="1.0" encoding="utf-8"?>
<!-- Generated by IcoMoon.io -->
<!DOCTYPE svg PUBLIC "-//W3C//DTD SVG 1.1//EN" "http://www.w3.org/Graphics/SVG/1.1/DTD/svg11.dtd">
<svg version="1.1" xmlns="http://www.w3.org/2000/svg" xmlns:xlink="http://www.w3.org/1999/xlink" width="476" height="512" viewBox="0 0 476 512">
<g>
</g>
	<path d="M466.286 274.286q0 7.428-5.428 12.857t-12.857 5.428h-64q0 48.857-19.143 82.857l59.428 59.714q5.428 5.428 5.428 12.857t-5.428 12.857q-5.143 5.428-12.857 5.428t-12.857-5.428l-56.572-56.286q-1.428 1.428-4.286 3.714t-12 8.143-18.572 10.428-23.428 8.286-27.714 3.714v-256h-36.572v256q-14.572 0-29-3.857t-24.857-9.428-18.857-11.143-12.428-9.286l-4.286-4-52.285 59.143q-5.715 6-13.715 6-6.857 0-12.285-4.572-5.428-5.143-5.857-12.714t4.428-13.286l57.715-64.857q-16.572-32.572-16.572-78.286h-64q-7.428 0-12.857-5.428t-5.428-12.857 5.428-12.857 12.857-5.428h64v-84l-49.428-49.428q-5.428-5.428-5.428-12.857t5.428-12.857 12.857-5.428 12.857 5.428l49.428 49.428h241.143l49.428-49.428q5.428-5.428 12.857-5.428t12.857 5.428 5.428 12.857-5.428 12.857l-49.428 49.428v84h64q7.428 0 12.857 5.428t5.428 12.857zM329.143 109.715h-182.857q0-38 26.715-64.715t64.714-26.715 64.714 26.715 26.714 64.715z" fill="#000000" />
</svg>
