<?xml version="1.0" encoding="utf-8"?>
<!-- Generated by IcoMoon.io -->
<!DOCTYPE svg PUBLIC "-//W3C//DTD SVG 1.1//EN" "http://www.w3.org/Graphics/SVG/1.1/DTD/svg11.dtd">
<svg version="1.1" xmlns="http://www.w3.org/2000/svg" xmlns:xlink="http://www.w3.org/1999/xlink" width="512" height="512" viewBox="0 0 512 512">
<g>
</g>
	<path d="M192.768 271.376c-2.848 4.112-6.32 14.416-10.432 16.944-4.112 2.512-8.752 4.272-13.904 5.248-5.168 0.992-10.512 1.424-16.032 1.264v24.432h39.472v96.736h31.856v-159.936h-25.344c-0.896 6.096-2.768 11.2-5.616 15.312zM368 128h32c8.848 0 16-7.168 16-16v-96c0-8.832-7.152-16-16-16h-32c-8.848 0-16 7.168-16 16v96c0 8.832 7.152 16 16 16zM112 128h32c8.832 0 16-7.168 16-16v-96c0-8.832-7.168-16-16-16h-32c-8.832 0-16 7.168-16 16v96c0 8.832 7.168 16 16 16zM480 64h-32v80c0 8.832-7.152 16-16 16h-96c-8.848 0-16-7.168-16-16v-80h-128v80c0 8.832-7.168 16-16 16h-96c-8.832 0-16-7.168-16-16v-80h-32c-17.664 0-32 14.336-32 32v384c0 17.664 14.336 32 32 32h448c17.664 0 32-14.336 32-32v-384c0-17.664-14.336-32-32-32zM480 464c0 8.848-7.152 16-16 16h-416c-8.832 0-16-7.152-16-16v-256c0-8.832 7.168-16 16-16h416c8.848 0 16 7.168 16 16v256zM255.76 287.712h79.488c-14.976 18.432-27.024 37.2-36.24 59.28-9.2 22.096-10.208 45.088-11.984 68.992h34.096c0.144-10.656-3.12-22.16-0.816-34.496 2.336-12.336 5.632-24.512 9.872-36.56 4.272-12.032 9.568-23.376 15.936-34.032 6.336-10.672 13.648-19.664 21.872-26.976v-27.872h-112.24v31.664z" fill="#000000" />
</svg>
