<?xml version="1.0" encoding="utf-8"?>
<!-- Generated by IcoMoon.io -->
<!DOCTYPE svg PUBLIC "-//W3C//DTD SVG 1.1//EN" "http://www.w3.org/Graphics/SVG/1.1/DTD/svg11.dtd">
<svg version="1.1" xmlns="http://www.w3.org/2000/svg" xmlns:xlink="http://www.w3.org/1999/xlink" width="512" height="512" viewBox="0 0 512 512">
<g>
</g>
	<path d="M148.48 312.32v-158.72h-97.28c-28.16 0-51.2 23.040-51.2 51.2v153.6c0 28.16 23.040 51.2 51.2 51.2h25.6v76.8l76.8-76.8h128c28.16 0 51.2-23.040 51.2-51.2v-46.592c-1.639 0.358-3.379 0.538-5.12 0.538h-179.2zM460.8 25.6h-230.4c-28.16 0-51.2 23.040-51.2 51.2v204.8h179.2l76.8 76.8v-76.8h25.6c28.16 0 51.2-23.040 51.2-51.2v-153.6c0-28.16-23.040-51.2-51.2-51.2z" fill="#000000" />
</svg>
