<?xml version="1.0" encoding="utf-8"?>
<!-- Generated by IcoMoon.io -->
<!DOCTYPE svg PUBLIC "-//W3C//DTD SVG 1.1//EN" "http://www.w3.org/Graphics/SVG/1.1/DTD/svg11.dtd">
<svg version="1.1" xmlns="http://www.w3.org/2000/svg" xmlns:xlink="http://www.w3.org/1999/xlink" width="549" height="512" viewBox="0 0 549 512">
<g>
</g>
	<path d="M365.714 246.857q0-4-2.572-6.571l-100.572-100.572q-2.572-2.571-6.572-2.571t-6.572 2.571l-100.286 100.286q-2.857 3.429-2.857 6.857 0 4 2.571 6.571t6.572 2.571h64v100.571q0 3.714 2.714 6.428t6.428 2.714h54.857q3.714 0 6.428-2.714t2.714-6.428v-100.572h64q3.714 0 6.428-2.714t2.714-6.428zM548.572 329.143q0 45.428-32.143 77.572t-77.572 32.143h-310.857q-52.857 0-90.428-37.572t-37.572-90.428q0-37.143 20-68.572t53.715-47.143q-0.572-8.571-0.572-12.286 0-60.572 42.857-103.428t103.428-42.857q44.572 0 81.572 24.857t53.857 66q20.286-17.715 47.428-17.715 30.286 0 51.714 21.428t21.428 51.714q0 21.714-11.714 39.428 37.143 8.857 61 38.714t23.857 68.143z" fill="#000000" />
</svg>
