<?xml version="1.0" encoding="utf-8"?>
<!-- Generated by IcoMoon.io -->
<!DOCTYPE svg PUBLIC "-//W3C//DTD SVG 1.1//EN" "http://www.w3.org/Graphics/SVG/1.1/DTD/svg11.dtd">
<svg version="1.1" xmlns="http://www.w3.org/2000/svg" xmlns:xlink="http://www.w3.org/1999/xlink" width="549" height="512" viewBox="0 0 549 512">
<g>
</g>
	<path d="M256 256q0-30.286-21.428-51.714t-51.714-21.428-51.714 21.428-21.428 51.714 21.428 51.714 51.714 21.428 51.714-21.428 21.428-51.714zM475.428 402.286q0-14.857-10.857-25.714t-25.714-10.857-25.714 10.857-10.857 25.714q0 15.143 10.714 25.857t25.857 10.714 25.857-10.714 10.714-25.857zM475.428 109.715q0-14.857-10.857-25.715t-25.714-10.857-25.714 10.857-10.857 25.715q0 15.143 10.714 25.857t25.857 10.714 25.857-10.714 10.714-25.857zM365.714 230v52.857q0 2.857-2 5.572t-4.572 3l-44.286 6.857q-3.143 10-9.143 21.714 9.714 13.714 25.714 32.857 2 2.857 2 5.714 0 3.428-2 5.428-6.572 8.572-23.572 25.572t-22.428 17q-3.143 0-6-2l-32.857-25.714q-10.571 5.428-22 8.857-3.143 30.857-6.571 44.286-2 6.857-8.572 6.857h-53.143q-3.143 0-5.714-2.143t-2.857-5l-6.572-43.714q-9.714-2.857-21.428-8.857l-33.715 25.428q-2 2-5.715 2-3.143 0-6-2.286-41.143-38-41.143-45.714 0-2.572 2-5.428 2.857-4 11.715-15.143t13.428-17.428q-6.572-12.572-10-23.428l-43.428-6.857q-2.857-0.286-4.857-2.714t-2-5.572v-52.857q0-2.857 2-5.571t4.572-3l44.285-6.857q3.143-10 9.143-21.715-9.715-13.714-25.715-32.857-2-3.143-2-5.714 0-3.429 2-5.714 6.285-8.571 23.428-25.428t22.572-16.857q3.143 0 6 2l32.857 25.715q9.715-5.143 22-9.143 3.143-30.857 6.572-44 2-6.857 8.572-6.857h53.143q3.143 0 5.714 2.143t2.857 5l6.572 43.715q9.714 2.857 21.428 8.857l33.714-25.428q2.286-2 5.714-2 3.143 0 6 2.285 41.143 38 41.143 45.715 0 2.571-2 5.428-3.428 4.572-12 15.428t-12.857 17.143q6.572 13.714 9.714 23.429l43.428 6.572q2.857 0.571 4.857 3t2 5.572zM548.572 382.286v40q0 4.572-42.572 8.857-3.428 7.714-8.572 14.857 14.572 32.286 14.572 39.428 0 1.143-1.143 2-34.857 20.286-35.428 20.286-2.286 0-13.143-13.428t-14.857-19.428q-5.714 0.572-8.572 0.572t-8.572-0.572q-4 6-14.857 19.428t-13.143 13.428q-0.572 0-35.428-20.286-1.143-0.857-1.143-2 0-7.143 14.572-39.428-5.143-7.143-8.572-14.857-42.572-4.286-42.572-8.857v-40q0-4.572 42.572-8.857 3.714-8.286 8.572-14.857-14.572-32.286-14.572-39.428 0-1.143 1.143-2 1.143-0.572 10-5.714t16.857-9.714 8.572-4.572q2.286 0 13.143 13.286t14.857 19.286q5.714-0.572 8.572-0.572t8.572 0.572q14.572-20.286 26.286-32l1.714-0.572q1.143 0 35.428 20 1.143 0.857 1.143 2 0 7.143-14.572 39.428 4.857 6.572 8.572 14.857 42.572 4.286 42.572 8.857zM548.572 89.715v40q0 4.572-42.572 8.857-3.428 7.714-8.572 14.857 14.572 32.286 14.572 39.428 0 1.143-1.143 2-34.857 20.286-35.428 20.286-2.286 0-13.143-13.428t-14.857-19.428q-5.714 0.571-8.572 0.571t-8.572-0.571q-4 6-14.857 19.428t-13.143 13.428q-0.572 0-35.428-20.286-1.143-0.857-1.143-2 0-7.143 14.572-39.428-5.143-7.143-8.572-14.857-42.572-4.286-42.572-8.857v-40q0-4.572 42.572-8.857 3.714-8.285 8.572-14.857-14.572-32.285-14.572-39.428 0-1.143 1.143-2 1.143-0.572 10-5.715t16.857-9.714 8.572-4.572q2.286 0 13.143 13.286t14.857 19.285q5.714-0.572 8.572-0.572t8.572 0.572q14.572-20.285 26.286-32l1.714-0.572q1.143 0 35.428 20 1.143 0.857 1.143 2 0 7.143-14.572 39.428 4.857 6.572 8.572 14.857 42.572 4.285 42.572 8.857z" fill="#000000" />
</svg>
