<?xml version="1.0" encoding="utf-8"?>
<!-- Generated by IcoMoon.io -->
<!DOCTYPE svg PUBLIC "-//W3C//DTD SVG 1.1//EN" "http://www.w3.org/Graphics/SVG/1.1/DTD/svg11.dtd">
<svg version="1.1" xmlns="http://www.w3.org/2000/svg" xmlns:xlink="http://www.w3.org/1999/xlink" width="512" height="512" viewBox="0 0 512 512">
<g>
</g>
	<path d="M288 320q-77 0-137-13.5t-79-34q68 15.5 152 15.5 61.5 0 116.75-8.5t89.25-23.5 34-32v-32h16q14.5 3 23.25 12.25t8.75 19.75v32q0 17.5-30 32.25t-81.5 23.25-112.5 8.5zM256 192q-48.5 0-89-5.25t-64.5-12.5-40.75-15.5-23.25-14.25-6.5-8.5v-19.5q25.5 19 88 31.25t136 12.25 136-12.25 88-31.25v11.5q0 17-30 31.75t-81.5 23.5-112.5 8.75zM256 128q-61 0-112.5-8.75t-81.5-23.5-30-32 30-32 81.5-23.25 112.5-8.5 112.5 8.5 81.5 23.25 30 32-30 32-81.5 23.5-112.5 8.75zM16 160q0 17 34 32t89.25 23.5 116.75 8.5q56 0 107-7.25t85-19.75q-0.5 1-1.75 3.25t-7.75 8.25-15.75 11.5-27 12.5-40 11.75-56.75 8.25-75 3.5q-61 0-112.5-8.75t-81.5-23.5-30-31.75v-32q0-12 16-23.5v23.5zM16 328.5v23.5q0 17 34 32t89.25 23.5 116.75 8.5q55 0 105.75-7t85.25-19.5q-7.5 25-71.5 41.75t-151.5 16.75q-61 0-112.5-8.5t-81.5-23.25-30-32.25v-32q0-12 16-23.5zM288 352q55.5 0 106.25-7.25t84.75-19.75q-7 25-71 42t-152 17q-61 0-112.5-8.5t-81.5-23.25-30-32.25v-32q0-11 14.5-22.5 7.5 2.5 13 4-9.5 9.5-9.5 18.5 0 17 33.5 32t88.5 23.5 116 8.5zM464 416v-23.5q16 11.5 16 23.5v32q0 17.5-30 32.25t-81.5 23.25-112.5 8.5q-88 0-152-17t-71-42q34 12.5 84.75 19.75t106.25 7.25q61.5 0 116.75-8.5t89.25-23.5 34-32z" fill="#000000" />
</svg>
