<?xml version="1.0" encoding="utf-8"?>
<!-- Generated by IcoMoon.io -->
<!DOCTYPE svg PUBLIC "-//W3C//DTD SVG 1.1//EN" "http://www.w3.org/Graphics/SVG/1.1/DTD/svg11.dtd">
<svg version="1.1" xmlns="http://www.w3.org/2000/svg" xmlns:xlink="http://www.w3.org/1999/xlink" width="512" height="512" viewBox="0 0 512 512">
<g>
</g>
	<path d="M240 32c-132.548 0-240 107.452-240 240 0 132.549 107.452 240 240 240 132.549 0 240-107.451 240-240 0-132.548-107.451-240-240-240zM240 464c-106.039 0-192-85.961-192-192s85.961-192 192-192c106.039 0 192 85.961 192 192 0 106.039-85.961 192-192 192zM256 256v-64h64v-32h-64v-32h-32v32h-64v128h64v64h-64v32h64v32h32v-32h64.001l-0.001-128h-64zM224 256h-32v-64h32v64zM288.001 352h-32.001v-64h32.001v64z" fill="#000000" />
</svg>
