<?xml version="1.0" encoding="utf-8"?>
<!-- Generated by IcoMoon.io -->
<!DOCTYPE svg PUBLIC "-//W3C//DTD SVG 1.1//EN" "http://www.w3.org/Graphics/SVG/1.1/DTD/svg11.dtd">
<svg version="1.1" xmlns="http://www.w3.org/2000/svg" xmlns:xlink="http://www.w3.org/1999/xlink" width="512" height="512" viewBox="0 0 512 512">
<g>
</g>
	<path d="M464 296c0 114.88-93.12 208-208 208s-208-93.12-208-208c0-101.28 72.4-185.552 168.24-204.112-5.2-7.664-8.24-16.912-8.24-26.896 0-26.512 21.488-48 48-48 26.496 0 48 21.488 48 48 0 9.968-3.040 19.216-8.256 26.896 95.856 18.56 168.256 102.832 168.256 204.112zM256 40c-13.264 0-24 10.752-24 24s10.736 24 24 24c13.248 0 24-10.752 24-24s-10.752-24-24-24zM272 120.8v39.2h-32v-39.2c-86.736 7.824-155.12 80.544-159.584 168.208h47.584v30.992h-46.336c10.608 81.072 76.272 143.776 158.336 151.184v-39.184h32v39.184c81.712-7.376 147.152-70.592 158.176-151.184h-46.176v-32h47.616c-3.968-88.128-72.576-159.344-159.616-167.2zM152.208 402.592l62.688-141.888 140.96-61.744-61.52 140.704-142.128 62.928zM277.12 277.664c-12.496-12.496-32.768-12.496-45.264 0s-12.496 32.752 0 45.248 32.768 12.496 45.264 0c12.496-12.496 12.496-32.736 0-45.248z" fill="#000000" />
</svg>
