<?xml version="1.0" encoding="utf-8"?>
<!-- Generated by IcoMoon.io -->
<!DOCTYPE svg PUBLIC "-//W3C//DTD SVG 1.1//EN" "http://www.w3.org/Graphics/SVG/1.1/DTD/svg11.dtd">
<svg version="1.1" xmlns="http://www.w3.org/2000/svg" xmlns:xlink="http://www.w3.org/1999/xlink" width="511" height="512" viewBox="0 0 511 512">
<g>
</g>
	<path d="M447.896 384c-15.504 0-29.248 6.256-40.368 15.44l-97.536-69.632c6.192-12.752 9.937-26.752 9.937-41.808 0-20.688-6.752-39.808-17.872-55.44l114.096-114.192c9.487 5.568 20 9.632 31.743 9.632 35.376 0 64-28.624 64-64s-28.624-64-64-64-64 28.624-64 64c0 11.808 4.128 22.256 9.632 31.744l-114.096 114.192c-15.759-11.248-34.752-17.936-55.503-17.936-36.624 0-68.128 20.816-84.32 51.056l-77.056-25.744c-3.12-14.368-15.312-25.312-30.624-25.312-17.68 0-32 14.32-32 32s14.32 32 32 32c8.064 0 15.248-3.248 20.88-8.192l76.624 25.568c-0.752 4.816-1.504 9.632-1.504 14.624 0 52.992 43.008 96 96 96 26.368 0 50.32-10.688 67.68-27.936l96.912 69.184c-2.752 7.12-4.624 14.688-4.624 22.752 0 35.312 28.624 64 64 64s64-28.688 64-64-28.625-64-64.001-64z" fill="#000000" />
</svg>
