<?xml version="1.0" encoding="utf-8"?>
<!-- Generator: Adobe Illustrator 15.0.2, SVG Export Plug-In . SVG Version: 6.00 Build 0)  -->
<!DOCTYPE svg PUBLIC "-//W3C//DTD SVG 1.1//EN" "http://www.w3.org/Graphics/SVG/1.1/DTD/svg11.dtd">
<svg version="1.1" id="Layer_1" xmlns="http://www.w3.org/2000/svg" xmlns:xlink="http://www.w3.org/1999/xlink" x="0px" y="0px"
	 width="403px" height="512px" viewBox="0 0 403 512" enable-background="new 0 0 403 512" xml:space="preserve">
<path d="M323.979,76.091l38.791,38.79c5.387,5.387,8.08,11.853,8.08,19.394c0,7.543-2.693,14.007-8.08,19.394l-84.045,84.045
	l84.045,84.044c5.387,5.389,8.08,11.854,8.08,19.396s-2.693,14.008-8.08,19.395l-38.791,38.79
	c-5.387,5.388-11.852,8.082-19.395,8.082c-7.543-0.001-14.008-2.694-19.395-8.082l-84.045-84.045l-84.045,84.045
	c-5.387,5.387-11.851,8.081-19.395,8.08c-7.541,0.002-14.006-2.693-19.394-8.08l-38.79-38.789
	c-5.387-5.389-8.082-11.854-8.081-19.396c0-7.543,2.693-14.008,8.081-19.396l84.044-84.044l-84.044-84.044
	c-5.388-5.387-8.081-11.852-8.081-19.394c-0.001-7.542,2.694-14.007,8.081-19.395l38.79-38.79
	c5.388-5.387,11.853-8.082,19.396-8.082c7.541,0,14.006,2.693,19.394,8.081l84.044,84.044l84.045-84.045
	c5.387-5.387,11.852-8.081,19.395-8.08C312.127,68.009,318.592,70.703,323.979,76.091L323.979,76.091z"/>
</svg>
