<?xml version="1.0" encoding="utf-8"?>
<!-- Generated by IcoMoon.io -->
<!DOCTYPE svg PUBLIC "-//W3C//DTD SVG 1.1//EN" "http://www.w3.org/Graphics/SVG/1.1/DTD/svg11.dtd">
<svg version="1.1" xmlns="http://www.w3.org/2000/svg" xmlns:xlink="http://www.w3.org/1999/xlink" width="512" height="512" viewBox="0 0 512 512">
<g>
</g>
	<path d="M109.715 329.143q0-15.143-10.715-25.857t-25.857-10.714-25.857 10.714-10.715 25.857 10.715 25.857 25.857 10.714 25.857-10.714 10.715-25.857zM164.571 201.143q0-15.143-10.714-25.857t-25.857-10.714-25.857 10.714-10.715 25.857 10.715 25.857 25.857 10.714 25.857-10.714 10.714-25.857zM286.857 338.572l28.857-109.143q1.714-7.429-2.143-13.857t-11-8.428-13.714 1.857-8.572 11.286l-28.857 109.143q-17.143 1.428-30.571 12.428t-18 28.143q-5.714 22 5.714 41.714t33.428 25.428 41.714-5.714 25.428-33.428q4.572-17.143-1.714-33.428t-20.572-26zM475.428 329.143q0-15.143-10.714-25.857t-25.857-10.714-25.857 10.714-10.714 25.857 10.714 25.857 25.857 10.714 25.857-10.714 10.714-25.857zM292.572 146.286q0-15.143-10.714-25.857t-25.857-10.715-25.857 10.715-10.714 25.857 10.714 25.857 25.857 10.714 25.857-10.714 10.714-25.857zM420.572 201.143q0-15.143-10.714-25.857t-25.857-10.714-25.857 10.714-10.714 25.857 10.714 25.857 25.857 10.714 25.857-10.714 10.714-25.857zM512 329.143q0 74.572-40.286 138-5.428 8.286-15.428 8.286h-400.572q-10 0-15.428-8.286-40.285-63.143-40.285-138 0-52 20.285-99.428t54.572-81.714 81.715-54.572 99.428-20.285 99.428 20.285 81.714 54.572 54.572 81.714 20.286 99.428z" fill="#000000" />
</svg>
