<?xml version="1.0" encoding="utf-8"?>
<!-- Generated by IcoMoon.io -->
<!DOCTYPE svg PUBLIC "-//W3C//DTD SVG 1.1//EN" "http://www.w3.org/Graphics/SVG/1.1/DTD/svg11.dtd">
<svg version="1.1" xmlns="http://www.w3.org/2000/svg" xmlns:xlink="http://www.w3.org/1999/xlink" width="400" height="400" viewBox="0 0 400 400">
<g>
</g>
	<path d="M200.175 276.025c-0.463 0-0.925 0-1.387 0-109.775 0-198.563-26.663-198.588-47.138l-0.2-80.412c0-0.125 0.050-0.237 0.050-0.337 18.075 8.575 39.313 12.525 52.013 14.888 39.462 7.337 91.588 11.387 146.725 11.387h1.387c55.488-0.063 107.912-4.213 147.662-11.675 12.712-2.387 33.875-6.362 51.962-14.887 0 0.037 0 0.112 0 0.112l0.213 80.413c0.025 20.563-89.413 47.5-199.838 47.65zM200.175 150.2c-0.463 0-0.925 0-1.387 0-109.775 0-198.563-24.325-198.588-44.8l-0.2-67.925c-0.037-20.55 89.45-37.337 199.875-37.475 0.488 0 0.95 0 1.438 0 109.737 0 198.463 16.5 198.487 36.975l0.213 67.925c0.025 20.55-89.413 45.15-199.838 45.3zM198.775 300.25h1.387c55.488-0.075 107.925-6.55 147.663-14.012 12.713-2.387 33.875-6.363 51.975-14.9l0.2 91.2c0.025 20.563-89.412 37.337-199.838 37.475-0.475 0-0.925 0-1.412 0-109.75 0-198.537-16.5-198.563-36.963l-0.188-91.438c18.075 8.587 39.325 12.537 52.050 14.9 39.463 7.35 91.575 13.738 146.725 13.738z" fill="#000000" />
</svg>
