<?xml version="1.0" encoding="utf-8"?>
<!-- Generated by IcoMoon.io -->
<!DOCTYPE svg PUBLIC "-//W3C//DTD SVG 1.1//EN" "http://www.w3.org/Graphics/SVG/1.1/DTD/svg11.dtd">
<svg version="1.1" xmlns="http://www.w3.org/2000/svg" xmlns:xlink="http://www.w3.org/1999/xlink" width="293" height="512" viewBox="0 0 293 512">
<g>
</g>
	<path d="M279.428 338.572q0 43.714-28.428 75.286t-73.857 39v50q0 4-2.571 6.572t-6.572 2.571h-38.572q-3.715 0-6.428-2.714t-2.715-6.428v-50q-18.857-2.572-36.428-8.857t-29-12.714-21.143-13.714-13.285-10.714-5-5.143q-4.857-6-0.572-11.714l29.428-38.572q2-2.857 6.572-3.428 4.285-0.572 6.857 2.572l0.572 0.572q32.285 28.286 69.428 35.714 10.572 2.286 21.143 2.286 23.143 0 40.714-12.286t17.572-34.857q0-8-4.286-15.143t-9.572-12-16.714-10.714-18.857-9.143-22.857-9.286q-11.143-4.572-17.572-7.143t-17.572-7.572-17.857-8.857-16.143-10.143-15.285-12.143-12.428-14-10.143-16.572-6-19-2.428-22.286q0-39.428 28-69.143t72.857-38.285v-51.428q0-3.715 2.715-6.428t6.429-2.715h38.572q4 0 6.572 2.571t2.571 6.572v50.285q16.285 1.715 31.571 6.572t24.857 9.572 18.143 10.715 11.143 8.285 4.286 4q4.857 5.143 1.428 10.857l-23.143 41.715q-2.286 4.286-6.571 4.571-4 0.857-7.714-2-0.857-0.857-4.143-3.429t-11.143-7.571-16.714-9.143-21.286-7.428-24.428-3.285q-27.143 0-44.285 12.286t-17.143 31.715q0 7.428 2.428 13.714t8.428 11.857 11.285 9.429 16 8.857 17.286 7.714 20 7.857q15.143 5.714 23.143 9t21.715 10 21.572 12.143 17.714 14.286 15.143 18.143 9 21.857 3.714 26.857z" fill="#000000" />
</svg>
