<?xml version="1.0" encoding="utf-8"?>
<!-- Generated by IcoMoon.io -->
<!DOCTYPE svg PUBLIC "-//W3C//DTD SVG 1.1//EN" "http://www.w3.org/Graphics/SVG/1.1/DTD/svg11.dtd">
<svg version="1.1" xmlns="http://www.w3.org/2000/svg" xmlns:xlink="http://www.w3.org/1999/xlink" width="512" height="512" viewBox="0 0 512 512">
<g>
</g>
	<path d="M496 320h-96q-6.5 0-11.25-4.75t-4.75-11.25v-96q0-6.5 4.75-11.25t11.25-4.75h96q6.5 0 11.25 4.75t4.75 11.25v96q0 6.5-4.75 11.25t-11.25 4.75zM368 128h-96q-6.5 0-11.25-4.75t-4.75-11.25v-96q0-6.5 4.75-11.25t11.25-4.75h96q6.5 0 11.25 4.75t4.75 11.25v96q0 6.5-4.75 11.25t-11.25 4.75zM320 208v96q0 6.5-4.75 11.25t-11.25 4.75h-96q-6.5 0-11.25-4.75t-4.75-11.25v-96q0-6.5 4.75-11.25t11.25-4.75h96q6.5 0 11.25 4.75t4.75 11.25zM176 128h-96q-6.5 0-11.25-4.75t-4.75-11.25v-96q0-6.5 4.75-11.25t11.25-4.75h96q6.5 0 11.25 4.75t4.75 11.25v96q0 6.5-4.75 11.25t-11.25 4.75zM128 208v96q0 6.5-4.75 11.25t-11.25 4.75h-96q-6.5 0-11.25-4.75t-4.75-11.25v-96q0-6.5 4.75-11.25t11.25-4.75h96q6.5 0 11.25 4.75t4.75 11.25zM112 384h96q6.5 0 11.25 4.75t4.75 11.25v96q0 6.5-4.75 11.25t-11.25 4.75h-96q-6.5 0-11.25-4.75t-4.75-11.25v-96q0-6.5 4.75-11.25t11.25-4.75zM304 384h96q6.5 0 11.25 4.75t4.75 11.25v96q0 6.5-4.75 11.25t-11.25 4.75h-96q-6.5 0-11.25-4.75t-4.75-11.25v-96q0-6.5 4.75-11.25t11.25-4.75z" fill="#000000" />
</svg>
