<?xml version="1.0" encoding="utf-8"?>
<!-- Generated by IcoMoon.io -->
<!DOCTYPE svg PUBLIC "-//W3C//DTD SVG 1.1//EN" "http://www.w3.org/Graphics/SVG/1.1/DTD/svg11.dtd">
<svg version="1.1" xmlns="http://www.w3.org/2000/svg" xmlns:xlink="http://www.w3.org/1999/xlink" width="512" height="512" viewBox="0 0 512 512">
<g>
</g>
	<path d="M449.248 0l33.622 285.78-37.74 4.44-30.026-255.22h-318.208l-30.026 255.22-37.74-4.44 33.621-285.78zM128 64h256v32h-256zM128 128h256v32h-256zM128 192h256v32h-256zM128 256h256v32h-256zM496 320h-480c-8.8 0-13.723 6.83-10.94 15.179l53.88 161.642c2.783 8.349 12.26 15.179 21.060 15.179h352c8.8 0 18.276-6.83 21.060-15.179l53.881-161.643c2.783-8.348-2.141-15.178-10.941-15.178zM320 384h-128v-32h128v32z" fill="#000000" />
</svg>
