<?xml version="1.0" encoding="utf-8"?>
<!-- Generated by IcoMoon.io -->
<!DOCTYPE svg PUBLIC "-//W3C//DTD SVG 1.1//EN" "http://www.w3.org/Graphics/SVG/1.1/DTD/svg11.dtd">
<svg version="1.1" xmlns="http://www.w3.org/2000/svg" xmlns:xlink="http://www.w3.org/1999/xlink" width="512" height="512" viewBox="0 0 512 512">
<g>
</g>
	<path d="M437.020 74.981c48.351 48.352 74.98 112.64 74.98 181.020s-26.629 132.667-74.98 181.019c-48.353 48.351-112.64 74.98-181.020 74.98-68.38 0-132.667-26.629-181.020-74.98-48.351-48.352-74.98-112.639-74.98-181.019 0-68.38 26.627-132.668 74.98-181.020 48.353-48.352 112.64-74.981 181.020-74.981 68.38 0 132.667 26.629 181.020 74.981zM414.392 414.393c31.529-31.53 52.493-70.804 61.136-113.531-6.737 9.918-13.181 13.597-17.172-8.603-4.11-36.195-37.354-13.074-58.258-25.93-22.002 14.829-71.453-28.831-63.049 20.412 12.967 22.211 70.004-29.725 41.574 17.271-18.137 32.808-66.321 105.466-60.053 143.129 0.791 54.872-56.067 11.442-75.657-6.76-13.178-36.46-4.491-100.187-38.949-118.043-37.401-1.624-69.502-5.023-83.997-46.835-8.723-29.914 9.282-74.447 41.339-81.322 46.925-29.483 63.687 34.527 107.695 35.717 13.664-14.297 50.908-18.843 53.996-34.875-28.875-5.095 36.634-24.279-2.764-35.191-21.735 2.556-35.739 22.537-24.184 39.479-42.119 9.821-43.468-60.952-83.955-38.629-1.029 35.295-66.111 11.443-22.518 4.286 14.978-6.544-24.43-25.508-3.14-22.062 10.458-0.568 45.666-12.906 36.138-21.201 19.605-12.17 36.080 29.145 55.269-0.941 13.854-23.133-5.81-27.404-23.175-15.678-9.79-10.962 17.285-34.638 41.166-44.869 7.959-3.41 15.561-5.268 21.373-4.742 12.029 13.896 34.275 16.303 35.439-1.671-29.791-14.267-62.638-21.804-96.646-21.804-48.811 0-95.235 15.512-133.654 44.195 10.325 4.73 16.186 10.619 6.239 18.148-7.728 23.027-39.085 53.938-66.612 49.562-14.293 24.648-23.706 51.803-27.73 80.264 23.056 7.628 28.372 22.725 23.418 27.775-11.748 10.244-18.968 24.765-22.688 40.661 7.505 45.918 29.086 88.238 62.635 121.788 42.308 42.307 98.559 65.607 158.392 65.607 59.832 0 116.084-23.3 158.392-65.607z" fill="#000000" />
</svg>
