<?xml version="1.0" encoding="utf-8"?>
<!-- Generated by IcoMoon.io -->
<!DOCTYPE svg PUBLIC "-//W3C//DTD SVG 1.1//EN" "http://www.w3.org/Graphics/SVG/1.1/DTD/svg11.dtd">
<svg version="1.1" xmlns="http://www.w3.org/2000/svg" xmlns:xlink="http://www.w3.org/1999/xlink" width="512" height="512" viewBox="0 0 512 512">
<g>
</g>
	<path d="M475.428 429.714v-219.429q-9.143 10.286-19.714 18.857-76.572 58.857-121.714 96.572-14.572 12.286-23.714 19.143t-24.714 13.857-29.286 7h-0.571q-13.714 0-29.285-7t-24.714-13.857-23.714-19.143q-45.143-37.714-121.715-96.572-10.572-8.572-19.715-18.857v219.429q0 3.714 2.715 6.428t6.428 2.714h420.572q3.714 0 6.428-2.714t2.714-6.428zM475.428 129.429v-7t-0.143-3.715-0.857-3.572-1.572-2.572-2.572-2.143-4-0.715h-420.572q-3.715 0-6.428 2.715t-2.715 6.428q0 48 42 81.143 55.143 43.428 114.571 90.572 1.714 1.428 10 8.428t13.143 10.714 12.714 9 14.429 7.857 12.286 2.572h0.571q5.714 0 12.286-2.572t14.428-7.857 12.714-9 13.143-10.714 10-8.428q59.428-47.143 114.572-90.572 15.428-12.286 28.714-33t13.286-37.572zM512 118.857v310.857q0 18.857-13.428 32.286t-32.286 13.428h-420.572q-18.857 0-32.285-13.428t-13.428-32.286v-310.857q0-18.857 13.428-32.285t32.285-13.428h420.572q18.857 0 32.286 13.428t13.428 32.285z" fill="#000000" />
</svg>
