<?xml version="1.0" encoding="utf-8"?>
<!-- Generated by IcoMoon.io -->
<!DOCTYPE svg PUBLIC "-//W3C//DTD SVG 1.1//EN" "http://www.w3.org/Graphics/SVG/1.1/DTD/svg11.dtd">
<svg version="1.1" xmlns="http://www.w3.org/2000/svg" xmlns:xlink="http://www.w3.org/1999/xlink" width="512" height="512" viewBox="0 0 512 512">
<g>
</g>
	<path d="M448 224h8c13.2 0 24-10.8 24-24v-80c0-13.2-10.8-24-24-24h-8v-96h-64v96h-8c-13.2 0-24 10.8-24 24v80c0 13.2 10.8 24 24 24h8v288h64v-288zM384 128h64v64h-64v-64zM296 416c13.2 0 24-10.8 24-24v-80c0-13.2-10.8-24-24-24h-8v-288h-64v288h-8c-13.2 0-24 10.8-24 24v80c0 13.2 10.8 24 24 24h8v96h64v-96h8zM224 320h64v64h-64v-64zM136 224c13.2 0 24-10.8 24-24v-80c0-13.2-10.8-24-24-24h-8v-96h-64v96h-8c-13.2 0-24 10.8-24 24v80c0 13.2 10.8 24 24 24h8v288h64v-288h8zM64 128h64v64h-64v-64z" fill="#000000" />
</svg>
