<?xml version="1.0" encoding="utf-8"?>
<!-- Generated by IcoMoon.io -->
<!DOCTYPE svg PUBLIC "-//W3C//DTD SVG 1.1//EN" "http://www.w3.org/Graphics/SVG/1.1/DTD/svg11.dtd">
<svg version="1.1" xmlns="http://www.w3.org/2000/svg" xmlns:xlink="http://www.w3.org/1999/xlink" width="512" height="512" viewBox="0 0 512 512">
<g>
</g>
	<path d="M178.375 287.812l-105.281 105.282-41.094-41.094c-17.688 0-32 14.312-32 32v96c0 17.688 14.312 32 32 32h96c17.688 0 32-14.312 32-32l-41.094-41.062 105.281-105.312-45.812-45.814zM480 0h-96c-17.688 0-32 14.328-32 32l41.094 41.094-105.282 105.281 45.812 45.812 105.281-105.266 41.095 41.079c17.688 0 32-14.312 32-32v-96c0-17.672-14.312-32-32-32zM480 352l-41.094 41.094-105.281-105.282-45.812 45.812 105.281 105.312-41.094 41.064c0 17.688 14.312 32 32 32h96c17.688 0 32-14.312 32-32v-96c0-17.688-14.312-32-32-32zM160 32c0-17.672-14.312-32-32-32h-96c-17.688 0-32 14.328-32 32v96c0 17.688 14.312 32 32 32l41.094-41.078 105.281 105.266 45.812-45.812-105.281-105.282 41.094-41.094z" fill="#000000" />
</svg>
