<?xml version="1.0" encoding="utf-8"?>
<!-- Generator: Adobe Illustrator 15.0.2, SVG Export Plug-In . SVG Version: 6.00 Build 0)  -->
<!DOCTYPE svg PUBLIC "-//W3C//DTD SVG 1.1//EN" "http://www.w3.org/Graphics/SVG/1.1/DTD/svg11.dtd">
<svg version="1.1" id="Layer_1" xmlns="http://www.w3.org/2000/svg" xmlns:xlink="http://www.w3.org/1999/xlink" x="0px" y="0px"
	 width="512px" height="512px" viewBox="0 0 512 512" enable-background="new 0 0 512 512" xml:space="preserve">
<path stroke="#000000" stroke-width="12" stroke-miterlimit="10" d="M378.88,404.48H59.392v-230.4h63.774
	c0,0,16.934-22.938,53.33-51.2H34.816c-13.565,0-24.576,11.469-24.576,25.6v281.6c0,14.157,11.011,25.6,24.576,25.6h368.639
	c13.592,0,24.577-11.442,24.577-25.6v-95.896l-49.152,42.111V404.48z M338.625,226.56v90.879L501.76,184.295L338.625,56.32v80.128
	C140.493,136.473,140.493,340.48,140.493,340.48C196.575,244.531,231.08,226.56,338.625,226.56L338.625,226.56z"/>
</svg>
