<?xml version="1.0" encoding="utf-8"?>
<!-- Generated by IcoMoon.io -->
<!DOCTYPE svg PUBLIC "-//W3C//DTD SVG 1.1//EN" "http://www.w3.org/Graphics/SVG/1.1/DTD/svg11.dtd">
<svg version="1.1" xmlns="http://www.w3.org/2000/svg" xmlns:xlink="http://www.w3.org/1999/xlink" width="512" height="512" viewBox="0 0 512 512">
<g>
</g>
	<path d="M512 100.572v310.857q0 12-11.143 16.857-3.714 1.428-7.143 1.428-7.714 0-12.857-5.428l-115.143-115.143v47.428q0 34-24.143 58.143t-58.143 24.143h-201.143q-34 0-58.143-24.143t-24.143-58.143v-201.143q0-34 24.143-58.143t58.143-24.143h201.143q34 0 58.143 24.143t24.143 58.143v47.143l115.143-114.857q5.143-5.428 12.857-5.428 3.428 0 7.143 1.428 11.143 4.857 11.143 16.857z" fill="#000000" />
</svg>
