<?xml version="1.0" encoding="utf-8"?>
<!-- Generated by IcoMoon.io -->
<!DOCTYPE svg PUBLIC "-//W3C//DTD SVG 1.1//EN" "http://www.w3.org/Graphics/SVG/1.1/DTD/svg11.dtd">
<svg version="1.1" xmlns="http://www.w3.org/2000/svg" xmlns:xlink="http://www.w3.org/1999/xlink" width="512" height="512" viewBox="0 0 512 512">
<g>
</g>
	<path d="M499.143 40.285q5.428-5.428 9.143-3.715t3.715 9.143v420.572q0 7.428-3.714 9.143t-9.143-3.714l-202.857-202.857q-2.572-2.572-3.714-5.428v202.857q0 7.428-3.714 9.143t-9.143-3.714l-202.857-202.857q-2.572-2.572-3.715-5.428v193.714q0 7.428-5.428 12.857t-12.857 5.428h-36.572q-7.428 0-12.857-5.428t-5.428-12.857v-402.286q0-7.428 5.428-12.857t12.857-5.428h36.572q7.428 0 12.857 5.428t5.428 12.857v193.714q1.143-3.143 3.715-5.428l202.857-202.857q5.428-5.428 9.143-3.715t3.714 9.143v202.857q1.143-3.143 3.714-5.428z" fill="#000000" />
</svg>
