<?xml version="1.0" encoding="utf-8"?>
<!-- Generated by IcoMoon.io -->
<!DOCTYPE svg PUBLIC "-//W3C//DTD SVG 1.1//EN" "http://www.w3.org/Graphics/SVG/1.1/DTD/svg11.dtd">
<svg version="1.1" xmlns="http://www.w3.org/2000/svg" xmlns:xlink="http://www.w3.org/1999/xlink" width="512" height="512" viewBox="0 0 512 512">
<g>
</g>
	<path d="M192 305.723v-57.113c0-7.564 3.348-14.718 9.427-20.143 6.080-5.424 14.096-8.413 22.573-8.413v-28.555c-35.2 0-64 25.7-64 57.111v42.833c0 7.886-7.164 14.279-16 14.279h-16v28.555h16c8.837 0 16 6.395 16 14.279v42.838c0 31.407 28.8 57.107 64 57.107v-28.556c-8.477 0-16.494-2.988-22.573-8.413-6.079-5.426-9.427-12.577-9.427-20.139v-57.117c0-7.885-7.164-14.277-16-14.277 8.837 0.001 16-6.394 16-14.276zM320 334.277v57.117c0 7.562-3.348 14.713-9.427 20.139-6.079 5.425-14.095 8.413-22.573 8.413v28.556c35.201 0 64-25.7 64-57.107v-42.838c0-7.886 7.164-14.279 16-14.279h16v-28.555h-16c-8.836 0-16-6.395-16-14.279v-42.834c0-31.412-28.799-57.111-64-57.111v28.555c8.479 0 16.494 2.989 22.573 8.415 6.080 5.424 9.427 12.578 9.427 20.142v57.114c0 7.883 7.164 14.276 16 14.276-8.836-0.001-16 6.394-16 14.276zM451.716 99.715l-71.432-71.431c-15.556-15.556-46.284-28.284-68.284-28.284h-240c-22 0-40 18-40 40v432c0 22 18 40 40 40h368c22 0 40-18 40-40v-304c0-22-12.728-52.729-28.284-68.285zM429.089 122.343c1.565 1.565 3.125 3.487 4.64 5.657h-81.729v-81.728c2.17 1.515 4.092 3.075 5.657 4.64l71.432 71.431zM448 472c0 4.336-3.664 8-8 8h-368c-4.336 0-8-3.664-8-8v-432c0-4.336 3.664-8 8-8h240c2.416 0 5.127 0.305 8 0.852v127.148h127.148c0.547 2.873 0.852 5.583 0.852 8v304z" fill="#000000" />
</svg>
