<?xml version="1.0" encoding="utf-8"?>
<!-- Generated by IcoMoon.io -->
<!DOCTYPE svg PUBLIC "-//W3C//DTD SVG 1.1//EN" "http://www.w3.org/Graphics/SVG/1.1/DTD/svg11.dtd">
<svg version="1.1" xmlns="http://www.w3.org/2000/svg" xmlns:xlink="http://www.w3.org/1999/xlink" width="403" height="512" viewBox="0 0 403 512">
<g>
</g>
	<path d="M402.286 484.572v18.286q0 3.714-2.714 6.428t-6.428 2.714h-384q-3.715 0-6.428-2.714t-2.715-6.428v-18.286q0-3.714 2.715-6.428t6.428-2.714h384q3.714 0 6.428 2.714t2.714 6.428zM329.143 182.857q0 22.285-7 41.143t-18.286 32.143-25 25.143-27.428 22.143-25 20.572-18.286 23.286-7 27.572q0 27.428 19.143 64l-1.143-0.286 0.286 0.286q-25.714-11.714-45.714-23.714t-39.572-28.572-32.428-35-20.715-43-7.857-52.572q0-22.286 7-41.143t18.285-32.143 25-25.143 27.428-22.143 25-20.572 18.286-23.285 7-27.572q0-26.857-18.857-64l0.857 0.285-0.286-0.285q25.714 11.714 45.714 23.715t39.572 28.572 32.428 35 20.714 43 7.857 52.572z" fill="#000000" />
</svg>
