<?xml version="1.0" encoding="utf-8"?>
<!-- Generated by IcoMoon.io -->
<!DOCTYPE svg PUBLIC "-//W3C//DTD SVG 1.1//EN" "http://www.w3.org/Graphics/SVG/1.1/DTD/svg11.dtd">
<svg version="1.1" xmlns="http://www.w3.org/2000/svg" xmlns:xlink="http://www.w3.org/1999/xlink" width="512" height="512" viewBox="0 0 512 512">
<g>
</g>
	<path d="M91.428 73.143q0 20.572-18.285 31.428v361.714q0 3.714-2.715 6.428t-6.428 2.714h-18.285q-3.715 0-6.428-2.714t-2.715-6.428v-361.714q-18.285-10.857-18.285-31.428 0-15.143 10.715-25.857t25.857-10.715 25.857 10.715 10.715 25.857zM512 91.428v218q0 7.143-3.572 11t-11.286 7.857q-61.428 33.143-105.428 33.143-17.428 0-35.286-6.286t-31-13.714-33-13.714-40.714-6.286q-54.857 0-132.571 41.714-4.857 2.572-9.428 2.572-7.428 0-12.857-5.428t-5.428-12.857v-212q0-9.143 8.857-15.715 6-4 22.572-12.285 67.428-34.285 120.285-34.285 30.571 0 57.143 8.285t62.572 25.143q10.857 5.428 25.143 5.428 15.428 0 33.572-6t31.428-13.428 25.143-13.428 15.572-6q7.428 0 12.857 5.428t5.428 12.857z" fill="#000000" />
</svg>
