<?xml version="1.0" encoding="utf-8"?>
<!-- Generated by IcoMoon.io -->
<!DOCTYPE svg PUBLIC "-//W3C//DTD SVG 1.1//EN" "http://www.w3.org/Graphics/SVG/1.1/DTD/svg11.dtd">
<svg version="1.1" xmlns="http://www.w3.org/2000/svg" xmlns:xlink="http://www.w3.org/1999/xlink" width="512" height="512" viewBox="0 0 512 512">
<g>
</g>
	<path d="M237.714 285.714v-54.857q-51.714 4.571-109.715 33.429v52.857q58.572-27.428 109.715-31.428zM237.714 166.286v-56.285q-49.143 2.285-109.715 36v54q61.428-31.714 109.715-33.714zM475.428 298.572v-52.572q-67.143 33.143-109.714 20.286v-64q-5.714-1.714-11.143-4.286-1.428-0.857-9.428-4.857t-9.857-4.857-9-4.286-9.857-4.428-9.286-3.714-10.286-3.571-10-2.429-11.286-2.143-11.286-1.143-12.572-0.571q-6.572 0-14 0.857v63.428h5.428q29.143 0 55 8.286t56.428 23.428q5.428 2.572 11.143 4.286v53.714q12 4.857 26 4.857 34.286 0 83.714-26.286zM475.428 176.571v-54q-48.286 26-87.428 26-12.857 0-22.286-2.286v56q42.286 12 109.714-25.715zM91.428 73.143q0 10-5 18.285t-13.285 13.143v361.714q0 4-2.572 6.572t-6.572 2.572h-18.285q-4 0-6.572-2.572t-2.572-6.572v-361.714q-8.285-4.857-13.285-13.143t-5-18.285q0-15.143 10.715-25.857t25.857-10.715 25.857 10.715 10.715 25.857zM512 91.428v218q0 11.143-10 16.286-2.857 1.428-4.857 2.572-62.286 33.143-105.428 33.143-25.143 0-45.143-10l-8-4q-18.286-9.428-28.286-13.714t-26-8.286-32.572-4q-29.143 0-67.286 12.572t-65.285 29.143q-4.285 2.572-9.428 2.572-4.572 0-9.143-2.286-9.143-5.428-9.143-16v-212q0-10 8.857-15.715 10-6 22.428-12.143t32.572-14.857 43.571-14.143 44.286-5.428q32 0 59.714 8.857t59.714 24.572q10.857 5.428 25.428 5.428 34.857 0 88.572-32 6.286-3.428 8.857-4.857 8.857-4.572 17.714 0.572 8.857 5.715 8.857 15.715z" fill="#000000" />
</svg>
