<?xml version="1.0" encoding="utf-8"?>
<!-- Generated by IcoMoon.io -->
<!DOCTYPE svg PUBLIC "-//W3C//DTD SVG 1.1//EN" "http://www.w3.org/Graphics/SVG/1.1/DTD/svg11.dtd">
<svg version="1.1" xmlns="http://www.w3.org/2000/svg" xmlns:xlink="http://www.w3.org/1999/xlink" width="512" height="512" viewBox="0 0 512 512">
<g>
</g>
	<path d="M475.428 298.572v-176q-48.286 26-87.428 26-23.428 0-41.428-9.143-28.572-14-52.572-21.857t-50.857-7.857q-49.429 0-115.143 36.285v171.143q70-32.286 123.714-32.286 15.714 0 29.572 2.143t28 7.428 22 8.857 23.572 11.286l8 4q12.572 6.286 28.857 6.286 34.286 0 83.714-26.286zM91.428 73.143q0 10-5 18.285t-13.285 13.143v361.714q0 4-2.572 6.572t-6.572 2.572h-18.285q-4 0-6.572-2.572t-2.572-6.572v-361.714q-8.285-4.857-13.285-13.143t-5-18.285q0-15.143 10.715-25.857t25.857-10.715 25.857 10.715 10.715 25.857zM512 91.428v218q0 11.143-10 16.286-2.857 1.428-4.857 2.572-62.286 33.143-105.428 33.143-25.143 0-45.143-10l-8-4q-18.286-9.428-28.286-13.714t-26-8.286-32.572-4q-29.143 0-67.286 12.572t-65.285 29.143q-4.285 2.572-9.428 2.572-4.572 0-9.143-2.286-9.143-5.428-9.143-16v-212q0-10 8.857-15.715 10-6 22.428-12.143t32.572-14.857 43.571-14.143 44.286-5.428q32 0 59.714 8.857t59.714 24.572q10.857 5.428 25.428 5.428 34.857 0 88.572-32 6.286-3.428 8.857-4.857 8.857-4.572 17.714 0.572 8.857 5.715 8.857 15.715z" fill="#000000" />
</svg>
