<?xml version="1.0" encoding="utf-8"?>
<!-- Generated by IcoMoon.io -->
<!DOCTYPE svg PUBLIC "-//W3C//DTD SVG 1.1//EN" "http://www.w3.org/Graphics/SVG/1.1/DTD/svg11.dtd">
<svg version="1.1" xmlns="http://www.w3.org/2000/svg" xmlns:xlink="http://www.w3.org/1999/xlink" width="512" height="512" viewBox="0 0 512 512">
<g>
</g>
	<path d="M344.5 160q-13.5-0.5-27-7.5-1-0.5-2-1.5t-1.5-1q-22.5 15.5-40.25 36t-17.75 38q0 10.5 10.5 32h133.5q6.5 0 11.25 4.75t4.75 11.25v32q0 6.5-4.75 11.25t-11.25 4.75h-16l-38.5 178.5q-1.5 5.5-6 9.5t-10 4h-146.5q-6 0-10.5-4t-6-9.5l-38.5-178.5h-16q-6.5 0-11.25-4.75t-4.75-11.25v-32q0-6.5 4.75-11.25t11.25-4.75h108q4-17 4-32 0-19-7-41-21-24.5-51-38-32.5 26.5-69 6-12-6.5-21.5-13.5t-16.25-15.75-11.5-15.75-7.75-18.25-4.75-18.75-2.25-21.5-0.75-22.25-0.25-25.25q11 12.5 28 18t34 6.5 34 3.25 32.5 12.25 25 29q6.5 12.5 6.5 28 0 12.5-5 23.5 23.5 13.5 37 23.5 10 7.5 20 23 13-27.5 47-48v-0.5q-12.5-45.5 27-68 15.5-8.5 29.25-13.25t28-4.75 24.75 1.25 26 8 25 11.5 29 15.25q-16.5 3-29.5 14.25t-22.25 24.25-19.75 25.75-26.5 20.5-37.5 6.75z" fill="#000000" />
</svg>
