<?xml version="1.0" encoding="utf-8"?>
<!-- Generated by IcoMoon.io -->
<!DOCTYPE svg PUBLIC "-//W3C//DTD SVG 1.1//EN" "http://www.w3.org/Graphics/SVG/1.1/DTD/svg11.dtd">
<svg version="1.1" xmlns="http://www.w3.org/2000/svg" xmlns:xlink="http://www.w3.org/1999/xlink" width="512" height="512" viewBox="0 0 512 512">
<g>
</g>
	<path d="M512 179.078c0-81.229-65.85-147.078-147.078-147.078-43.181 0-82.015 18.609-108.922 48.245-26.907-29.636-65.741-48.245-108.922-48.245-81.229 0-147.078 65.849-147.078 147.078 0 43.181 18.609 82.015 48.245 108.922h-0.245l160 160c16 16 32 32 48 32s32-16 48-32l159.755-160c29.636-26.907 48.245-65.741 48.245-108.922zM420.734 240.616l-161.989 162.129c-0.839 0.839-1.766 1.766-2.745 2.74-0.98-0.975-1.907-1.901-2.745-2.74l-161.989-162.128c-17.583-15.964-27.266-37.819-27.266-61.539 0-45.809 37.269-83.078 83.078-83.078 23.72 0 45.575 9.683 61.538 27.266l47.384 52.19 47.384-52.189c15.964-17.584 37.818-27.267 61.538-27.267 45.809 0 83.078 37.269 83.078 83.078 0 23.72-9.684 45.575-27.266 61.538z" fill="#000000" />
</svg>
