<?xml version="1.0" encoding="utf-8"?>
<!-- Generated by IcoMoon.io -->
<!DOCTYPE svg PUBLIC "-//W3C//DTD SVG 1.1//EN" "http://www.w3.org/Graphics/SVG/1.1/DTD/svg11.dtd">
<svg version="1.1" xmlns="http://www.w3.org/2000/svg" xmlns:xlink="http://www.w3.org/1999/xlink" width="512" height="512" viewBox="0 0 512 512">
<g>
</g>
	<path d="M256 475.428q-7.428 0-12.572-5.143l-178.286-172q-2.857-2.286-7.857-7.428t-15.857-18.714-19.428-27.857-15.286-34.571-6.715-39.428q0-62.857 36.285-98.285t100.285-35.428q17.714 0 36.143 6.143t34.285 16.572 27.286 19.572 21.714 19.428q10.286-10.285 21.714-19.428t27.286-19.572 34.286-16.572 36.143-6.143q64 0 100.286 35.428t36.286 98.285q0 63.143-65.428 128.572l-178 171.428q-5.143 5.143-12.572 5.143z" fill="#000000" />
</svg>
