<?xml version="1.0" encoding="utf-8"?>
<!-- Generated by IcoMoon.io -->
<!DOCTYPE svg PUBLIC "-//W3C//DTD SVG 1.1//EN" "http://www.w3.org/Graphics/SVG/1.1/DTD/svg11.dtd">
<svg version="1.1" xmlns="http://www.w3.org/2000/svg" xmlns:xlink="http://www.w3.org/1999/xlink" width="512" height="512" viewBox="0 0 512 512">
<g>
</g>
	<path d="M288 32c123.712 0 224 100.288 224 224s-100.288 224-224 224v-48c47.012 0 91.209-18.307 124.451-51.549 33.242-33.242 51.549-77.439 51.549-124.451 0-47.011-18.307-91.209-51.549-124.451-33.242-33.242-77.439-51.549-124.451-51.549-47.011 0-91.209 18.307-124.451 51.549-25.57 25.569-42.291 57.623-48.653 92.451h93.104l-112 128-112-128h82.285c15.53-108.551 108.869-192 221.715-192zM384 224v64h-128v-160h64v96z" fill="#000000" />
</svg>
