<?xml version="1.0" encoding="utf-8"?>
<!-- Generated by IcoMoon.io -->
<!DOCTYPE svg PUBLIC "-//W3C//DTD SVG 1.1//EN" "http://www.w3.org/Graphics/SVG/1.1/DTD/svg11.dtd">
<svg version="1.1" xmlns="http://www.w3.org/2000/svg" xmlns:xlink="http://www.w3.org/1999/xlink" width="512" height="512" viewBox="0 0 512 512">
<g>
</g>
	<path d="M433.454 224h-154.182v-154.182l44.591 44.59 162.514-97.513-97.512 162.536 44.591 44.567zM107.892 99.165c-62.115 62.115-76.939 153.53-44.684 229.772l-27.020 49.059c-58.508-98.281-45.778-227.189 38.795-311.762s213.481-97.303 311.738-38.795l-49.036 27.020c-76.264-32.233-167.656-17.431-229.795 44.707zM78.546 270.545h154.182v154.182l-44.59-44.591-162.513 97.512 97.513-162.513-44.591-44.591zM404.108 395.357c62.394-62.371 77.032-154.251 44.242-230.679l27.066-48.779c58.95 98.35 46.336 227.654-38.4 312.39-84.782 84.76-214.040 97.373-312.39 38.4l48.779-27.066c76.404 32.791 168.332 18.152 230.702-44.264z" fill="#000000" />
</svg>
