<?xml version="1.0" encoding="utf-8"?>
<!-- Generated by IcoMoon.io -->
<!DOCTYPE svg PUBLIC "-//W3C//DTD SVG 1.1//EN" "http://www.w3.org/Graphics/SVG/1.1/DTD/svg11.dtd">
<svg version="1.1" xmlns="http://www.w3.org/2000/svg" xmlns:xlink="http://www.w3.org/1999/xlink" width="512" height="512" viewBox="0 0 512 512">
<g>
</g>
	<path d="M471 384q-12 0-24.75-9t-21.25-23.5q4.5 0.5 7 0.5 20 0 34-9.5t14-22.5q0-12.5-12.5-21.5t-31-10.5q-20.5 14-69.75 23t-110.75 9q-79.5 0-135.75-14.25t-56.25-33.75q0-15 33-27 7 18 57 30.5t118 12.5q56.5 0 101.5-9t64-23q6 4.5 8.5 9 13-9 25-9 17 0 29 18.75t12 45.25-12 45.25-29 18.75zM288 159.5q0 16.5 5 29.5t11 20.5 11 19.75 5 26.75q-2.5-1.5-6.75-4t-15.5-11.75-19.5-19.5-15.25-26.75-7-34.5q0-16.5 15.75-34.75t37.25-31 42.5-21.25 32.5-8q-9 0-31.75 15.5t-43.5 39-20.75 40.5zM192 176q0 17.5 8 37.5t16 31.5l8 11.5q-24 0-44-25.5t-20-55q0-13 10-26.25t24-24 28-20.25 24-18.75 10-16.25q0-14-1.5-24.5t-8.25-24-19.25-21.5q31 3.5 46 22.25t15 47.75q0 16-10 28.5t-24 20.5-28 15.5-24 17.75-10 23.25zM256 416q73.5 0 110.5-16 17.5 7.5 17.5 16 0 13-37.5 22.5t-90.5 9.5-90.5-9.5-37.5-22.5q0-8.5 17.5-16 37 16 110.5 16zM96 352q0-8.5 21.5-16 46.5 16 138.5 16t138.5-16q21.5 7.5 21.5 16 0 13-47 22.5t-113.25 9.5-113-9.5-46.75-22.5zM64 416q0 17.5 25.75 32.25t70 23.25 96.25 8.5 96.25-8.5 70-23.25 25.75-32.25q0-5.5-3-11 67 18 67 43 0 17.5-34.25 32.25t-93.25 23.25-128.5 8.5-128.5-8.5-93.25-23.25-34.25-32.25q0-25 67-43-3 5.5-3 11z" fill="#000000" />
</svg>
