<?xml version="1.0" encoding="utf-8"?>
<!-- Generated by IcoMoon.io -->
<!DOCTYPE svg PUBLIC "-//W3C//DTD SVG 1.1//EN" "http://www.w3.org/Graphics/SVG/1.1/DTD/svg11.dtd">
<svg version="1.1" xmlns="http://www.w3.org/2000/svg" xmlns:xlink="http://www.w3.org/1999/xlink" width="476" height="512" viewBox="0 0 476 512">
<g>
</g>
	<path d="M416 347.428q0-11.428-8-19.428l-59.428-59.428q-8-8-19.428-8-12 0-20.572 9.143 0.857 0.857 5.428 5.286t6.143 6.143 4.286 5.428 3.714 7.286 1 7.857q0 11.428-8 19.428t-19.428 8q-4.286 0-7.857-1t-7.286-3.714-5.428-4.286-6.143-6.143-5.286-5.428q-9.428 8.857-9.428 20.857 0 11.428 8 19.428l58.857 59.143q7.714 7.714 19.428 7.714 11.428 0 19.428-7.428l42-41.714q8-8 8-19.143zM215.143 146q0-11.428-8-19.428l-58.857-59.143q-8-8-19.428-8-11.143 0-19.428 7.715l-42 41.715q-8 8-8 19.143 0 11.428 8 19.428l59.428 59.428q7.714 7.714 19.428 7.714 12 0 20.572-8.857-0.857-0.857-5.428-5.286t-6.143-6.143-4.286-5.428-3.714-7.286-1-7.857q0-11.429 8-19.429t19.429-8q4.286 0 7.857 1t7.286 3.714 5.429 4.286 6.143 6.143 5.286 5.429q9.429-8.857 9.429-20.857zM470.857 347.428q0 34.286-24.286 58l-42 41.714q-23.714 23.714-58 23.714-34.572 0-58.286-24.286l-58.857-59.143q-23.715-23.714-23.715-58 0-35.143 25.143-59.714l-25.143-25.143q-24.572 25.143-59.428 25.143-34.285 0-58.285-24l-59.428-59.428q-24-24-24-58.286t24.285-58l42-41.715q23.715-23.715 58-23.715 34.572 0 58.286 24.285l58.857 59.143q23.715 23.715 23.715 58 0 35.143-25.143 59.714l25.143 25.143q24.572-25.143 59.428-25.143 34.286 0 58.286 24l59.428 59.428q24 24 24 58.286z" fill="#000000" />
</svg>
