<?xml version="1.0" encoding="utf-8"?>
<!-- Generated by IcoMoon.io -->
<!DOCTYPE svg PUBLIC "-//W3C//DTD SVG 1.1//EN" "http://www.w3.org/Graphics/SVG/1.1/DTD/svg11.dtd">
<svg version="1.1" xmlns="http://www.w3.org/2000/svg" xmlns:xlink="http://www.w3.org/1999/xlink" width="512" height="512" viewBox="0 0 512 512">
<g>
</g>
	<path d="M109.715 338.286v18.286q0 3.714-2.715 6.428t-6.428 2.714h-18.285q-3.715 0-6.428-2.714t-2.715-6.428v-18.286q0-3.714 2.715-6.428t6.428-2.714h18.285q3.715 0 6.428 2.714t2.715 6.428zM109.715 265.143v18.286q0 3.714-2.715 6.428t-6.428 2.714h-18.285q-3.715 0-6.428-2.714t-2.715-6.428v-18.286q0-3.714 2.715-6.428t6.428-2.714h18.285q3.715 0 6.428 2.714t2.715 6.428zM109.715 192v18.286q0 3.714-2.715 6.428t-6.428 2.714h-18.285q-3.715 0-6.428-2.714t-2.715-6.428v-18.286q0-3.714 2.715-6.428t6.428-2.714h18.285q3.715 0 6.428 2.714t2.715 6.428zM438.857 338.286v18.286q0 3.714-2.714 6.428t-6.428 2.714h-274.286q-3.714 0-6.428-2.714t-2.714-6.428v-18.286q0-3.714 2.714-6.428t6.428-2.714h274.286q3.714 0 6.428 2.714t2.714 6.428zM438.857 265.143v18.286q0 3.714-2.714 6.428t-6.428 2.714h-274.286q-3.714 0-6.428-2.714t-2.714-6.428v-18.286q0-3.714 2.714-6.428t6.428-2.714h274.286q3.714 0 6.428 2.714t2.714 6.428zM438.857 192v18.286q0 3.714-2.714 6.428t-6.428 2.714h-274.286q-3.714 0-6.428-2.714t-2.714-6.428v-18.286q0-3.714 2.714-6.428t6.428-2.714h274.286q3.714 0 6.428 2.714t2.714 6.428zM475.428 393.143v-237.714q0-3.714-2.714-6.428t-6.428-2.714h-420.572q-3.715 0-6.428 2.714t-2.715 6.428v237.714q0 3.714 2.715 6.428t6.428 2.714h420.572q3.714 0 6.428-2.714t2.714-6.428zM512 82.285v310.857q0 18.857-13.428 32.286t-32.286 13.428h-420.572q-18.857 0-32.285-13.428t-13.428-32.286v-310.857q0-18.857 13.428-32.285t32.285-13.428h420.572q18.857 0 32.286 13.428t13.428 32.285z" fill="#000000" />
</svg>
