<?xml version="1.0" encoding="utf-8"?>
<!-- Generated by IcoMoon.io -->
<!DOCTYPE svg PUBLIC "-//W3C//DTD SVG 1.1//EN" "http://www.w3.org/Graphics/SVG/1.1/DTD/svg11.dtd">
<svg version="1.1" xmlns="http://www.w3.org/2000/svg" xmlns:xlink="http://www.w3.org/1999/xlink" width="512" height="512" viewBox="0 0 512 512">
<g>
</g>
	<path d="M320 256v64h75.808l-85.936 85.936c-54.224 54.336-148.944 54.336-203.216 0l-45.28 45.184c39.216 39.264 91.44 60.88 146.944 60.88 55.536 0 107.632-21.632 146.8-60.88l92.88-92.8v89.68h64v-192h-192zM192 192h-75.808l85.936-85.936c54.224-54.336 148.944-54.336 203.216 0l45.28-45.184c-39.216-39.248-91.44-60.88-146.96-60.88-55.536 0-107.632 21.632-146.8 60.88l-92.864 92.8v-89.68h-64v192h192v-64z" fill="#000000" />
</svg>
