<?xml version="1.0" encoding="utf-8"?>
<!-- Generated by IcoMoon.io -->
<!DOCTYPE svg PUBLIC "-//W3C//DTD SVG 1.1//EN" "http://www.w3.org/Graphics/SVG/1.1/DTD/svg11.dtd">
<svg version="1.1" xmlns="http://www.w3.org/2000/svg" xmlns:xlink="http://www.w3.org/1999/xlink" width="512" height="512" viewBox="0 0 512 512">
<g>
</g>
	<path d="M192 160h-64v-0.256c0-17.632 14.368-31.744 32-31.744h192c17.632 0 32 14.368 32 32v32h64v-32c0-52.944-43.056-96-96-96h-192c-52.944 0-96 43.056-96 96h-64l96 96 96-96zM416 256l-96 96h64v0.256c0 17.616-14.368 31.744-32 31.744h-192c-17.632 0-32-14.368-32-32v-32h-64v32c0 52.944 43.056 96 96 96h192c52.944 0 96-43.056 96-96h64l-96-96z" fill="#000000" />
</svg>
