<?xml version="1.0" encoding="utf-8"?>
<!-- Generated by IcoMoon.io -->
<!DOCTYPE svg PUBLIC "-//W3C//DTD SVG 1.1//EN" "http://www.w3.org/Graphics/SVG/1.1/DTD/svg11.dtd">
<svg version="1.1" xmlns="http://www.w3.org/2000/svg" xmlns:xlink="http://www.w3.org/1999/xlink" width="512" height="512" viewBox="0 0 512 512">
<g>
</g>
	<path d="M437.011 74.99c-46.326-46.328-110.318-74.99-181.011-74.99-109.744 0-203.345 69.064-239.749 166.094l59.938 22.477c27.302-72.773 97.503-124.571 179.811-124.571 53.020 0 101.010 21.5 135.753 56.247l-71.753 71.753h192v-192l-74.989 74.99zM256 448c-53.020 0-101.013-21.496-135.756-56.244l71.756-71.756h-192v192l74.997-74.997c46.323 46.331 110.309 74.997 181.003 74.997 109.745 0 203.346-69.064 239.75-166.094l-59.938-22.477c-27.302 72.773-97.503 124.571-179.812 124.571z" fill="#000000" />
</svg>
