<?xml version="1.0" encoding="utf-8"?>
<!-- Generated by IcoMoon.io -->
<!DOCTYPE svg PUBLIC "-//W3C//DTD SVG 1.1//EN" "http://www.w3.org/Graphics/SVG/1.1/DTD/svg11.dtd">
<svg version="1.1" xmlns="http://www.w3.org/2000/svg" xmlns:xlink="http://www.w3.org/1999/xlink" width="549" height="512" viewBox="0 0 549 512">
<g>
</g>
	<path d="M219.429 329.143h109.715v-27.428h-36.572v-128h-32.572l-42.286 39.143 22 22.857q12-10.572 15.714-16.286h0.572v82.286h-36.572v27.428zM365.714 256q0 20-6 40.572t-17 38.286-29 28.857-39.428 11.143-39.428-11.143-29-28.857-17-38.286-6-40.572 6-40.572 17-38.286 29-28.857 39.428-11.143 39.428 11.143 29 28.857 17 38.286 6 40.572zM512 329.143v-146.286q-30.286 0-51.714-21.428t-21.428-51.715h-329.143q0 30.285-21.428 51.715t-51.715 21.428v146.286q30.285 0 51.715 21.428t21.428 51.714h329.143q0-30.286 21.428-51.714t51.714-21.428zM548.572 91.428v329.143q0 7.428-5.428 12.857t-12.857 5.428h-512q-7.428 0-12.857-5.428t-5.428-12.857v-329.143q0-7.428 5.428-12.857t12.857-5.428h512q7.428 0 12.857 5.428t5.428 12.857z" fill="#000000" />
</svg>
