<?xml version="1.0" encoding="utf-8"?>
<!-- Generated by IcoMoon.io -->
<!DOCTYPE svg PUBLIC "-//W3C//DTD SVG 1.1//EN" "http://www.w3.org/Graphics/SVG/1.1/DTD/svg11.dtd">
<svg version="1.1" xmlns="http://www.w3.org/2000/svg" xmlns:xlink="http://www.w3.org/1999/xlink" width="504" height="504" viewBox="0 0 504 504">
<g>
</g>
	<path d="M466.729 37.271c-9.828-9.853-25.78-9.853-35.633 0l-393.826 393.826c-9.853 9.853-9.853 25.805 0 35.633 4.914 4.914 11.365 7.384 17.816 7.384s12.902-2.47 17.816-7.384l393.826-393.826c9.853-9.853 9.853-25.83 0-35.633zM357.865 231.664c35.003 47.477 45.814 88.704 39.287 95.231-6.552 6.502-47.729-4.309-95.206-39.337l-139.255 139.28c105.487 46.318 242.6-50.803 267.246-75.449 23.31-23.26 2.444-83.437-46.771-145.026l-25.301 25.301zM218.408 200.063c-27.695-41.756-36.036-76.154-30.089-82.127 5.872-5.922 40.32 2.444 82.076 30.139l25.78-25.78c-57.053-42.185-110.754-58.792-132.451-37.019-23.411 23.335-112.115 148.1-81.446 250.916l136.13-136.13z" fill="#000000" />
</svg>
