<?xml version="1.0" encoding="utf-8"?>
<!-- Generated by IcoMoon.io -->
<!DOCTYPE svg PUBLIC "-//W3C//DTD SVG 1.1//EN" "http://www.w3.org/Graphics/SVG/1.1/DTD/svg11.dtd">
<svg version="1.1" xmlns="http://www.w3.org/2000/svg" xmlns:xlink="http://www.w3.org/1999/xlink" width="439" height="512" viewBox="0 0 439 512">
<g>
</g>
	<path d="M438.857 256q0 44.572-17.428 85.143t-46.857 70-70 46.857-85.143 17.428-85.143-17.428-70-46.857-46.857-70-17.428-85.143q0-52 23-98t64.715-77.143q12.285-9.143 27.285-7.143t23.857 14.285q9.143 12 7 27t-14.143 24.143q-28 21.143-43.285 51.714t-15.285 65.143q0 29.715 11.572 56.715t31.285 46.714 46.715 31.286 56.714 11.572 56.714-11.572 46.714-31.286 31.286-46.714 11.572-56.714q0-34.572-15.286-65.143t-43.286-51.715q-12-9.143-14.143-24.143t7-27q8.857-12.285 24-14.285t27.143 7.143q41.714 31.143 64.714 77.143t23 98zM256 36.572v182.857q0 14.857-10.857 25.714t-25.715 10.857-25.714-10.857-10.857-25.714v-182.857q0-14.857 10.857-25.715t25.714-10.857 25.714 10.857 10.857 25.715z" fill="#000000" />
</svg>
