<?xml version="1.0" encoding="utf-8"?>
<!-- Generated by IcoMoon.io -->
<!DOCTYPE svg PUBLIC "-//W3C//DTD SVG 1.1//EN" "http://www.w3.org/Graphics/SVG/1.1/DTD/svg11.dtd">
<svg version="1.1" xmlns="http://www.w3.org/2000/svg" xmlns:xlink="http://www.w3.org/1999/xlink" width="512" height="512" viewBox="0 0 512 512">
<g>
</g>
	<path d="M512 288v-192h-96v-32c0-17.6-14.4-32-32-32h-352c-17.6 0-32 14.4-32 32v96c0 17.6 14.4 32 32 32h352c17.6 0 32-14.4 32-32v-32h64v128h-288v64h-16c-8.837 0-16 7.163-16 16v160c0 8.837 7.163 16 16 16h64c8.837 0 16-7.163 16-16v-160c0-8.837-7.163-16-16-16h-16v-32h288zM384 96h-352v-32h352v32z" fill="#000000" />
</svg>
