<?xml version="1.0" encoding="utf-8"?>
<!-- Generator: Adobe Illustrator 15.0.0, SVG Export Plug-In . SVG Version: 6.00 Build 0)  -->
<!DOCTYPE svg PUBLIC "-//W3C//DTD SVG 1.1//EN" "http://www.w3.org/Graphics/SVG/1.1/DTD/svg11.dtd">
<svg version="1.1" id="Layer_1" xmlns="http://www.w3.org/2000/svg" xmlns:xlink="http://www.w3.org/1999/xlink" x="0px" y="0px"
	 width="476px" height="512px" viewBox="0 0 476 512" enable-background="new 0 0 476 512" xml:space="preserve">
<path d="M462.286,32.25c-8.953-8.952-19.715-13.428-32.286-13.428H46c-12.571,0-23.333,4.476-32.284,13.428
	C4.764,41.202,0.287,51.964,0.287,64.535v347.428c0,12.572,4.477,23.334,13.429,32.286c8.951,8.952,19.713,13.428,32.284,13.428h384
	c12.572,0.001,23.334-4.475,32.286-13.428s13.428-19.715,13.428-32.286V64.535C475.715,51.964,471.239,41.202,462.286,32.25z
	 M430.501,411.25h-385v-346h385V411.25z"/>
<g>
	<rect x="94.5" y="105.5" width="106" height="268"/>
	<path d="M200.5,373.5l-106,0.035h-0.035V373.5l-0.089-268v-0.125H94.5l106,0.035h0.09v0.09L200.5,373.5z M200.5,373.5l-0.09-268
		l0.09,0.09l-106,0.035l0.125-0.125l-0.089,268l-0.035-0.035L200.5,373.5z"/>
</g>
</svg>
