<?xml version="1.0" encoding="utf-8"?>
<!-- Generator: Adobe Illustrator 15.0.0, SVG Export Plug-In . SVG Version: 6.00 Build 0)  -->
<!DOCTYPE svg PUBLIC "-//W3C//DTD SVG 1.1//EN" "http://www.w3.org/Graphics/SVG/1.1/DTD/svg11.dtd">
<svg version="1.1" id="Layer_1" xmlns="http://www.w3.org/2000/svg" xmlns:xlink="http://www.w3.org/1999/xlink" x="0px" y="0px"
	 width="476px" height="512px" viewBox="0 0 476 512" enable-background="new 0 0 476 512" xml:space="preserve">
<path d="M462.286,33.25c-8.953-8.952-19.715-13.428-32.286-13.428H46c-12.571,0-23.333,4.476-32.284,13.428
	C4.764,42.202,0.287,52.964,0.287,65.535v347.428c0,12.572,4.477,23.334,13.429,32.286c8.951,8.952,19.713,13.428,32.284,13.428h384
	c12.572,0.001,23.334-4.475,32.286-13.428s13.428-19.715,13.428-32.286V65.535C475.715,52.964,471.239,42.202,462.286,33.25z
	 M430.501,412.25h-385v-346h385V412.25z"/>
<g>
	<rect x="79.5" y="108.5" width="317" height="105"/>
	<path d="M396.5,213.5l-317,0.094h-0.094V213.5l-0.031-105v-0.125H79.5l317,0.094h0.031v0.031L396.5,213.5z M396.5,213.5l-0.031-105
		l0.031,0.031l-317,0.094l0.125-0.125l-0.031,105l-0.094-0.094L396.5,213.5z"/>
</g>
</svg>
