<?xml version="1.0" encoding="utf-8"?>
<!-- Generated by IcoMoon.io -->
<!DOCTYPE svg PUBLIC "-//W3C//DTD SVG 1.1//EN" "http://www.w3.org/Graphics/SVG/1.1/DTD/svg11.dtd">
<svg version="1.1" xmlns="http://www.w3.org/2000/svg" xmlns:xlink="http://www.w3.org/1999/xlink" width="512" height="512" viewBox="0 0 512 512">
<g>
</g>
	<path d="M160 64v173.904c-40.455-11.228-50.296-16.904-93-16.904-36.944 0-67 30.056-67 67 0 36.943 30.056 67 67 67 51.986 0 75.975 19.361 102.855 57.545 0.798 1.134 1.581 2.289 2.355 3.455h-44.21v96h320v-96h-28.502c2.151-31.831 11.096-40.56 22.042-51.223 8.445-8.226 18.956-18.464 26.638-37.015 8.065-19.477 11.822-44.823 11.822-79.762v-32.49c0-30.969-25.634-56.163-57.143-56.163-5.235 0-10.438 0.712-15.45 2.095-10.498-9.855-24.501-15.482-39.407-15.482-5.234 0-10.438 0.712-15.449 2.095-10.499-9.855-24.503-15.482-39.408-15.482-9.018 0-17.55 2.071-25.143 5.744v-74.317c0-35.347-28.653-64-64-64-35.346 0-64 28.653-64 64zM416 464c0 8.836-7.163 16-16 16s-16-7.164-16-16 7.163-16 16-16 16 7.164 16 16zM256 67v128h32v-3.266c0-13.323 11.279-24.163 25.143-24.163 8.685 0 16.645 4.234 21.293 11.327l8.122 12.394 12.979-7.149c3.781-2.083 8.091-3.184 12.463-3.184 8.685 0 16.644 4.234 21.291 11.326l8.122 12.395 12.98-7.149c3.781-2.083 8.091-3.184 12.464-3.184 13.863 0 25.143 10.84 25.143 24.163v32.49c0 63.281-19.103 76.044-32.975 89.556-14.16 13.794-29.992 29.245-33.364 75.444h-167.187c-4.132-7.878-8.632-15.35-13.545-22.329-33.929-48.196-69.773-73.671-133.929-73.671-15.991 0-29-15.010-29-31s13.009-30 29-30c42.83 0 52.706 6.207 93 18.48 11.371 3.062 22.635 5.961 31.667 7.938l0.333-218.418c0-17.645 14.355-32 32-32s32 14.355 32 32z" fill="#000000" />
</svg>
