<?xml version="1.0" encoding="utf-8"?>
<!-- Generated by IcoMoon.io -->
<!DOCTYPE svg PUBLIC "-//W3C//DTD SVG 1.1//EN" "http://www.w3.org/Graphics/SVG/1.1/DTD/svg11.dtd">
<svg version="1.1" xmlns="http://www.w3.org/2000/svg" xmlns:xlink="http://www.w3.org/1999/xlink" width="512" height="512" viewBox="0 0 512 512">
<g>
</g>
	<path d="M432 0h-384c-26.4 0-48 21.6-48 48v416c0 26.4 21.6 48 48 48h384c26.4 0 48-21.6 48-48v-416c0-26.4-21.6-48-48-48zM416 448h-352v-384h352v384zM128 288h224v32h-224zM128 352h224v32h-224zM160 144c0-26.51 21.49-48 48-48s48 21.49 48 48c0 26.51-21.49 48-48 48-26.51 0-48-21.49-48-48zM240 192h-64c-26.4 0-48 14.4-48 32v32h160v-32c0-17.6-21.6-32-48-32z" fill="#000000" />
</svg>
