<?xml version="1.0" encoding="utf-8"?>
<!-- Generated by IcoMoon.io -->
<!DOCTYPE svg PUBLIC "-//W3C//DTD SVG 1.1//EN" "http://www.w3.org/Graphics/SVG/1.1/DTD/svg11.dtd">
<svg version="1.1" xmlns="http://www.w3.org/2000/svg" xmlns:xlink="http://www.w3.org/1999/xlink" width="512" height="512" viewBox="0 0 512 512">
<g>
</g>
	<path d="M224 352h64v64h-64zM352 128c17.673 0 32 14.327 32 32v96l-96 64h-64v-32l96-64v-32h-160v-64h192zM256 48c-55.559 0-107.792 21.636-147.078 60.922s-60.922 91.519-60.922 147.078c0 55.559 21.636 107.792 60.922 147.078 39.286 39.286 91.519 60.922 147.078 60.922 55.559 0 107.792-21.636 147.078-60.922 39.286-39.286 60.922-91.519 60.922-147.078 0-55.559-21.636-107.792-60.922-147.078-39.286-39.286-91.519-60.922-147.078-60.922zM256 0v0c141.385 0 256 114.615 256 256s-114.615 256-256 256c-141.385 0-256-114.615-256-256 0-141.385 114.615-256 256-256z" fill="#000000" />
</svg>
