<?xml version="1.0" encoding="utf-8"?>
<!-- Generated by IcoMoon.io -->
<!DOCTYPE svg PUBLIC "-//W3C//DTD SVG 1.1//EN" "http://www.w3.org/Graphics/SVG/1.1/DTD/svg11.dtd">
<svg version="1.1" xmlns="http://www.w3.org/2000/svg" xmlns:xlink="http://www.w3.org/1999/xlink" width="512" height="512" viewBox="0 0 512 512">
<g>
</g>
	<path d="M192 293.333c0 0 101.972-61.18 159.383-37.013 11.901-18.134 23.624-37.668 35.101-57.611-56.163-13.76-130.484-1.376-130.484-1.376s95.106-57.061 153.333-39.2c11.675-21.054 23.027-41.821 33.978-61.152-46.388-3.134-91.311 4.352-91.311 4.352s59.574-35.744 113.289-41.799c16.899-27.43 32.585-48.94 46.711-59.534-280.5 0-448 320-512 512h32l96-160c0 0 32 32 128 0 22.737-7.579 45.474-28.626 67.786-56.967-56.308-14.277-131.786-1.7-131.786-1.7z" fill="#000000" />
</svg>
