<?xml version="1.0" encoding="utf-8"?>
<!-- Generated by IcoMoon.io -->
<!DOCTYPE svg PUBLIC "-//W3C//DTD SVG 1.1//EN" "http://www.w3.org/Graphics/SVG/1.1/DTD/svg11.dtd">
<svg version="1.1" xmlns="http://www.w3.org/2000/svg" xmlns:xlink="http://www.w3.org/1999/xlink" width="512" height="512" viewBox="0 0 512 512">
<g>
</g>
	<path d="M512 128l-128-128v96c-65.386 0-115.376 15.604-152.825 47.704-2.625 2.25-5.142 4.55-7.581 6.887 13.76 19.082 24.358 38.758 33.886 57.545 24.161-29.201 59.027-48.136 126.52-48.136v192c-108.223 0-132.563-48.68-163.378-110.311-17.153-34.306-34.89-69.78-67.796-97.985-37.45-32.1-87.44-47.704-152.826-47.704v64c108.223 0 132.563 48.68 163.378 110.311 17.153 34.306 34.89 69.78 67.796 97.985 37.45 32.1 87.441 47.704 152.826 47.704v96l128-128-128-128 128-128zM0 352v64c65.386 0 115.375-15.604 152.825-47.704 2.625-2.249 5.142-4.55 7.581-6.888-13.76-19.081-24.359-38.758-33.886-57.545-24.16 29.201-59.026 48.137-126.52 48.137z" fill="#000000" />
</svg>
