<?xml version="1.0" encoding="utf-8"?>
<!-- Generated by IcoMoon.io -->
<!DOCTYPE svg PUBLIC "-//W3C//DTD SVG 1.1//EN" "http://www.w3.org/Graphics/SVG/1.1/DTD/svg11.dtd">
<svg version="1.1" xmlns="http://www.w3.org/2000/svg" xmlns:xlink="http://www.w3.org/1999/xlink" width="512" height="512" viewBox="0 0 512 512">
<g>
</g>
	<path d="M73.143 411.428v54.857q0 4-2.572 6.572t-6.572 2.572h-54.857q-4 0-6.572-2.572t-2.571-6.572v-54.857q0-4 2.571-6.572t6.572-2.572h54.857q4 0 6.572 2.572t2.572 6.572zM182.857 374.857v91.428q0 4-2.571 6.572t-6.572 2.572h-54.857q-4 0-6.572-2.572t-2.572-6.572v-91.428q0-4 2.572-6.572t6.572-2.572h54.857q4 0 6.572 2.572t2.571 6.572zM292.572 301.714v164.571q0 4-2.572 6.572t-6.572 2.572h-54.857q-4 0-6.571-2.572t-2.571-6.572v-164.572q0-4 2.571-6.572t6.572-2.572h54.857q4 0 6.572 2.572t2.572 6.572zM402.286 192v274.286q0 4-2.572 6.572t-6.572 2.572h-54.857q-4 0-6.572-2.572t-2.572-6.572v-274.286q0-4 2.572-6.572t6.572-2.571h54.857q4 0 6.572 2.571t2.572 6.572zM512 45.715v420.572q0 4-2.572 6.572t-6.572 2.572h-54.857q-4 0-6.572-2.572t-2.572-6.572v-420.572q0-4 2.572-6.572t6.572-2.572h54.857q4 0 6.572 2.572t2.572 6.572z" fill="#000000" />
</svg>
