<?xml version="1.0" encoding="utf-8"?>
<!-- Generated by IcoMoon.io -->
<!DOCTYPE svg PUBLIC "-//W3C//DTD SVG 1.1//EN" "http://www.w3.org/Graphics/SVG/1.1/DTD/svg11.dtd">
<svg version="1.1" xmlns="http://www.w3.org/2000/svg" xmlns:xlink="http://www.w3.org/1999/xlink" width="512" height="512" viewBox="0 0 512 512">
<g>
</g>
	<path d="M480 416h-448q-13.5 0-22.75-9.5t-9.25-22.5v-32q0-13.5 9.25-22.75t22.75-9.25h173q19-24.5 19-64 0-36.5-14-66.75t-37.5-46.75q-12.5-22-12.5-46.5 0-40 28-68.25t68-28.25 68 28.25 28 68.25q0 24.5-12.5 46.5-23.5 16.5-37.5 46.75t-14 66.75q0 39.5 19 64h173q13.5 0 22.75 9.25t9.25 22.75v32q0 13-9.25 22.5t-22.75 9.5zM480 480q0 13-9.25 22.5t-22.75 9.5h-384q-13.5 0-22.75-9.5t-9.25-22.5v-32h448v32z" fill="#000000" />
</svg>
