<?xml version="1.0" encoding="utf-8"?>
<!-- Generated by IcoMoon.io -->
<!DOCTYPE svg PUBLIC "-//W3C//DTD SVG 1.1//EN" "http://www.w3.org/Graphics/SVG/1.1/DTD/svg11.dtd">
<svg version="1.1" xmlns="http://www.w3.org/2000/svg" xmlns:xlink="http://www.w3.org/1999/xlink" width="476" height="512" viewBox="0 0 476 512">
<g>
</g>
	<path d="M475.428 184.857q0 6.286-7.428 13.714l-103.714 101.143 24.572 142.857q0.286 2 0.286 5.714 0 6-3 10.143t-8.714 4.143q-5.428 0-11.428-3.428l-128.286-67.428-128.286 67.428q-6.285 3.428-11.428 3.428-6 0-9-4.143t-3-10.143q0-1.714 0.572-5.714l24.572-142.857-104-101.143q-7.143-7.714-7.143-13.714 0-10.571 16-13.143l143.428-20.857 64.286-130q5.428-11.714 14-11.714t14 11.714l64.286 130 143.429 20.857q16 2.571 16 13.143z" fill="#000000" />
</svg>
