<?xml version="1.0" encoding="utf-8"?>
<!-- Generated by IcoMoon.io -->
<!DOCTYPE svg PUBLIC "-//W3C//DTD SVG 1.1//EN" "http://www.w3.org/Graphics/SVG/1.1/DTD/svg11.dtd">
<svg version="1.1" xmlns="http://www.w3.org/2000/svg" xmlns:xlink="http://www.w3.org/1999/xlink" width="512" height="512" viewBox="0 0 512 512">
<g>
</g>
	<path d="M182.857 109.715h146.286v-36.572h-146.286v36.572zM82.285 109.715v365.714h-18.285q-26.285 0-45.143-18.857t-18.857-45.143v-237.714q0-26.286 18.857-45.143t45.143-18.857h18.285zM402.286 109.715v365.714h-292.572v-365.714h36.572v-45.715q0-11.428 8-19.428t19.428-8h164.571q11.428 0 19.428 8t8 19.428v45.715h36.572zM512 173.714v237.714q0 26.286-18.857 45.143t-45.143 18.857h-18.286v-365.714h18.286q26.286 0 45.143 18.857t18.857 45.143z" fill="#000000" />
</svg>
