<?xml version="1.0" encoding="utf-8"?>
<!-- Generated by IcoMoon.io -->
<!DOCTYPE svg PUBLIC "-//W3C//DTD SVG 1.1//EN" "http://www.w3.org/Graphics/SVG/1.1/DTD/svg11.dtd">
<svg version="1.1" xmlns="http://www.w3.org/2000/svg" xmlns:xlink="http://www.w3.org/1999/xlink" width="512" height="512" viewBox="0 0 512 512">
<g>
</g>
	<path d="M0 32v448h512v-448h-512zM192 320v-96h128v96h-128zM320 352v96h-128v-96h128zM320 96v96h-128v-96h128zM160 96v96h-128v-96h128zM32 224h128v96h-128v-96zM352 224h128v96h-128v-96zM352 192v-96h128v96h-128zM32 352h128v96h-128v-96zM352 448v-96h128v96h-128z" fill="#000000" />
</svg>
