<?xml version="1.0" encoding="utf-8"?>
<!-- Generated by IcoMoon.io -->
<!DOCTYPE svg PUBLIC "-//W3C//DTD SVG 1.1//EN" "http://www.w3.org/Graphics/SVG/1.1/DTD/svg11.dtd">
<svg version="1.1" xmlns="http://www.w3.org/2000/svg" xmlns:xlink="http://www.w3.org/1999/xlink" width="512" height="512" viewBox="0 0 512 512">
<g>
</g>
	<path d="M292.572 402.286h182.857v-36.572h-182.857v36.572zM182.857 256h292.572v-36.572h-292.572v36.572zM365.714 109.715h109.714v-36.572h-109.714v36.572zM512 347.428v73.143q0 7.428-5.428 12.857t-12.857 5.428h-475.428q-7.428 0-12.857-5.428t-5.428-12.857v-73.143q0-7.428 5.428-12.857t12.857-5.428h475.428q7.428 0 12.857 5.428t5.428 12.857zM512 201.143v73.143q0 7.428-5.428 12.857t-12.857 5.428h-475.428q-7.428 0-12.857-5.428t-5.428-12.857v-73.143q0-7.429 5.428-12.857t12.857-5.428h475.428q7.428 0 12.857 5.428t5.428 12.857zM512 54.857v73.143q0 7.428-5.428 12.857t-12.857 5.429h-475.428q-7.428 0-12.857-5.428t-5.428-12.857v-73.143q0-7.428 5.428-12.857t12.857-5.428h475.428q7.428 0 12.857 5.428t5.428 12.857z" fill="#000000" />
</svg>
