<?xml version="1.0" encoding="utf-8"?>
<!-- Generated by IcoMoon.io -->
<!DOCTYPE svg PUBLIC "-//W3C//DTD SVG 1.1//EN" "http://www.w3.org/Graphics/SVG/1.1/DTD/svg11.dtd">
<svg version="1.1" xmlns="http://www.w3.org/2000/svg" xmlns:xlink="http://www.w3.org/1999/xlink" width="512" height="512" viewBox="0 0 512 512">
<g>
</g>
	<path d="M48 224c-36.5 0-16-96 16-96-16 0 0-80 32-80 0-32 32-48 64-48 135.176 0 87.632 33.825 224 48v256c-120.461 36.134-240 126.712-240 208-26.5 0-96-32 0-192 0 0-80 0-96 0-48 0-32-96 0-96zM416 304v-256h-32v-16h64c17.6 0 32 21.6 32 48v192c0 26.4-14.4 48-32 48h-64v-16h32z" fill="#000000" />
</svg>
