<?xml version="1.0" encoding="utf-8"?>
<!-- Generated by IcoMoon.io -->
<!DOCTYPE svg PUBLIC "-//W3C//DTD SVG 1.1//EN" "http://www.w3.org/Graphics/SVG/1.1/DTD/svg11.dtd">
<svg version="1.1" xmlns="http://www.w3.org/2000/svg" xmlns:xlink="http://www.w3.org/1999/xlink" width="512" height="512" viewBox="0 0 512 512">
<g>
</g>
	<path d="M80.231 176.384c23.91-18.56 43.725-5.786 70.169 24.832 2.995 3.43 6.989-0.589 9.242-2.56 2.253-1.997 37.171-33.382 38.861-34.841 1.715-1.511 3.763-4.327 1.049-7.475s-12.647-16-19.021-24.32c-46.285-60.544 126.618-101.606 100.045-102.246-13.491-0.358-67.738-0.973-75.827-0.128-32.845 3.481-74.087 34.176-94.848 48.461-27.136 18.662-37.299 29.491-38.963 31.001-7.68 6.733-1.229 22.195-15.155 34.406-14.72 12.903-23.885 3.149-32.41 10.624-4.25 3.738-16.051 12.57-19.456 15.565-3.379 2.97-3.994 8.013-0.538 12.058 0 0 32.333 35.738 35.072 38.887 2.714 3.149 10.009 5.811 14.541 1.817 4.531-3.968 16.154-14.183 18.125-15.923 1.997-1.715-1.28-22.093 9.114-30.157zM226.381 189.594c-3.072-3.559-6.861-3.635-10.163-0.717l-36.736 32.025c-2.867 2.56-3.251 7.27-0.666 10.24l212.327 241.613c4.941 5.735 13.543 6.323 19.251 1.357l24.858-20.787c5.658-4.966 6.247-13.671 1.305-19.379l-210.176-244.352zM509.491 86.758c-1.894-12.647-8.448-9.984-11.853-4.608-3.353 5.35-18.457 28.186-24.653 38.502-6.144 10.291-21.248 30.489-49.51 10.547-29.389-20.787-19.149-35.303-14.055-45.056 5.146-9.805 20.941-37.248 23.245-40.704 2.253-3.456-0.409-13.491-9.498-9.293-9.139 4.224-64.589 26.266-72.295 57.856-7.859 32.179 6.605 60.903-21.76 89.447l-34.355 35.84 34.509 40.141 42.342-40.218c10.112-10.137 31.642-19.994 51.149-15.565 41.805 9.472 64.589-6.246 78.361-32.179 12.339-23.219 10.291-72.064 8.371-84.71zM70.144 436.505c-5.325 5.376-5.325 14.080 0 19.43l24.346 23.808c5.325 5.351 13.773 3.098 19.097-2.253l125.619-123.52-38.502-43.853-130.56 126.387z" fill="#000000" />
</svg>
