<?xml version="1.0" encoding="utf-8"?>
<!-- Generated by IcoMoon.io -->
<!DOCTYPE svg PUBLIC "-//W3C//DTD SVG 1.1//EN" "http://www.w3.org/Graphics/SVG/1.1/DTD/svg11.dtd">
<svg version="1.1" xmlns="http://www.w3.org/2000/svg" xmlns:xlink="http://www.w3.org/1999/xlink" width="403" height="512" viewBox="0 0 403 512">
<g>
</g>
	<path d="M146.286 210.286v164.571q0 4-2.571 6.572t-6.571 2.572h-18.285q-4 0-6.572-2.572t-2.572-6.572v-164.571q0-4 2.572-6.571t6.572-2.571h18.285q4 0 6.572 2.571t2.571 6.572zM219.429 210.286v164.571q0 4-2.571 6.572t-6.572 2.572h-18.286q-4 0-6.572-2.572t-2.571-6.572v-164.571q0-4 2.571-6.571t6.572-2.571h18.286q4 0 6.572 2.571t2.571 6.572zM292.572 210.286v164.571q0 4-2.572 6.572t-6.572 2.572h-18.286q-4 0-6.572-2.572t-2.571-6.572v-164.571q0-4 2.571-6.571t6.572-2.571h18.286q4 0 6.572 2.571t2.572 6.572zM329.143 417.143v-270.857h-256v270.857q0 6.286 2 11.572t4.143 7.714 3 2.428h237.715q0.857 0 3-2.428t4.143-7.714 2-11.572zM137.143 109.715h128l-13.714-33.428q-2-2.572-4.857-3.143h-90.571q-2.857 0.572-4.857 3.143zM402.286 118.857v18.285q0 4-2.572 6.572t-6.572 2.571h-27.428v270.857q0 23.714-13.428 41t-32.286 17.286h-237.714q-18.857 0-32.285-16.714t-13.428-40.428v-272h-27.428q-4 0-6.572-2.571t-2.571-6.571v-18.285q0-4 2.571-6.572t6.572-2.572h88.285l20-47.715q4.285-10.572 15.429-18t22.572-7.428h91.428q11.428 0 22.572 7.428t15.428 18l20 47.715h88.286q4 0 6.572 2.572t2.572 6.572z" fill="#000000" />
</svg>
