<?xml version="1.0" encoding="utf-8"?>
<!-- Generated by IcoMoon.io -->
<!DOCTYPE svg PUBLIC "-//W3C//DTD SVG 1.1//EN" "http://www.w3.org/Graphics/SVG/1.1/DTD/svg11.dtd">
<svg version="1.1" xmlns="http://www.w3.org/2000/svg" xmlns:xlink="http://www.w3.org/1999/xlink" width="512" height="512" viewBox="0 0 512 512">
<g>
</g>
	<path d="M480 512h-448q-13 0-22.5-9.25t-9.5-22.75v-32q0-13 9.5-22.5t22.5-9.5h448q13.5 0 22.75 9.5t9.25 22.5v32q0 13.5-9.25 22.75t-22.75 9.25zM448 128v192q0 13.5-9.25 22.75t-22.75 9.25h-32q-13 0-22.5-9.25t-9.5-22.75v-192h-60q-4-4-4-10t4-10.5l98-103q4-4.5 9.75-4.5t9.75 4.5l98.5 103q4 4.5 4 10.5t-4 10h-60zM160 128v192q0 13.5-9.25 22.75t-22.75 9.25h-32q-13 0-22.5-9.25t-9.5-22.75v-192h-60q-4-4-4-10t4-10.5l98-103q4.5-4.5 10-4.5t10 4.5l98 103q4 4.5 4 10.5t-4 10h-60z" fill="#000000" />
</svg>
