<?xml version="1.0" encoding="utf-8"?>
<!-- Generated by IcoMoon.io -->
<!DOCTYPE svg PUBLIC "-//W3C//DTD SVG 1.1//EN" "http://www.w3.org/Graphics/SVG/1.1/DTD/svg11.dtd">
<svg version="1.1" xmlns="http://www.w3.org/2000/svg" xmlns:xlink="http://www.w3.org/1999/xlink" width="476" height="512" viewBox="0 0 476 512">
<g>
</g>
	<path d="M256 236.571v165.714q0 29.714-21.714 51.428t-51.428 21.714-51.428-21.714-21.715-51.428q0-7.428 5.428-12.857t12.857-5.428 12.857 5.428 5.428 12.857q0 14.286 11.143 25.428t25.429 11.143 25.428-11.143 11.143-25.428v-165.714q9.429-3.143 18.285-3.143t18.286 3.143zM475.428 244.286q0 3.714-2.714 6.428t-6.428 2.714q-3.143 0-6.572-2.857-14-13.143-26.572-19.715t-29.143-6.572q-19.428 0-36.572 10.572t-29.428 27.714q-2 2.857-5 8t-4.143 6.857q-3.143 4.857-8 4.857-5.143 0-8.286-4.857-1.143-1.714-4.143-6.857t-5-8q-12.286-17.143-29.286-27.714t-36.428-10.572-36.428 10.572-29.286 27.714q-2 2.857-5 8t-4.143 6.857q-3.143 4.857-8.286 4.857-4.857 0-8-4.857-1.143-1.714-4.143-6.857t-5-8q-12.285-17.143-29.428-27.714t-36.572-10.572q-16.572 0-29.143 6.572t-26.572 19.714q-3.428 2.857-6.572 2.857-3.715 0-6.428-2.714t-2.715-6.429q0-1.429 0.285-2 12.857-52.286 49.285-91.286t85.143-58.428 103-19.428q40 0 78.429 11.428t70.428 32.428 55.572 53.428 33 71.857q0.286 0.571 0.286 2zM256 36.572v28q-12-0.572-18.286-0.572t-18.286 0.572v-28q0-7.428 5.428-12.857t12.857-5.428 12.857 5.428 5.428 12.857z" fill="#000000" />
</svg>
