<?xml version="1.0" encoding="utf-8"?>
<!-- Generated by IcoMoon.io -->
<!DOCTYPE svg PUBLIC "-//W3C//DTD SVG 1.1//EN" "http://www.w3.org/Graphics/SVG/1.1/DTD/svg11.dtd">
<svg version="1.1" xmlns="http://www.w3.org/2000/svg" xmlns:xlink="http://www.w3.org/1999/xlink" width="476" height="512" viewBox="0 0 476 512">
<g>
</g>
	<path d="M125.428 363.143l-73.143 73.143q-2.857 2.572-6.572 2.572-3.428 0-6.572-2.572-2.572-2.857-2.572-6.572t2.572-6.572l73.143-73.143q2.857-2.572 6.572-2.572t6.572 2.572q2.572 2.857 2.572 6.572t-2.572 6.572zM173.714 374.857v91.428q0 4-2.571 6.572t-6.571 2.572-6.572-2.572-2.571-6.572v-91.428q0-4 2.571-6.572t6.572-2.572 6.572 2.572 2.571 6.572zM109.715 310.857q0 4-2.572 6.572t-6.572 2.572h-91.428q-4 0-6.572-2.572t-2.571-6.572 2.571-6.572 6.572-2.572h91.428q4 0 6.572 2.572t2.572 6.572zM470.857 347.428q0 34.286-24.286 58l-42 41.714q-23.714 23.714-58 23.714-34.572 0-58.286-24.286l-95.428-95.714q-6-6-12-16l68.286-5.143 78 78.286q7.714 7.714 19.428 7.857t19.428-7.572l42-41.714q8-8 8-19.143 0-11.428-8-19.428l-78.286-78.572 5.143-68.286q10 6 16 12l96 96q24 24.572 24 58.286zM294.572 140.571l-68.286 5.143-78-78.285q-8-8-19.428-8-11.143 0-19.428 7.715l-42 41.715q-8 8-8 19.143 0 11.428 8 19.428l78.285 78.286-5.143 68.572q-10-6-16-12l-96-96q-24-24.572-24-58.286 0-34.285 24.285-58l42-41.715q23.715-23.715 58-23.715 34.572 0 58.286 24.285l95.428 95.715q6 6 12 16zM475.428 164.571q0 4-2.572 6.571t-6.572 2.571h-91.428q-4 0-6.572-2.571t-2.572-6.572 2.572-6.572 6.572-2.571h91.428q4 0 6.572 2.571t2.572 6.572zM320 9.143v91.428q0 4-2.572 6.572t-6.572 2.572-6.572-2.572-2.572-6.572v-91.428q0-4 2.572-6.572t6.572-2.571 6.572 2.571 2.572 6.572zM436.286 52.285l-73.143 73.143q-3.143 2.572-6.572 2.572t-6.572-2.572q-2.572-2.857-2.572-6.572t2.572-6.572l73.143-73.143q2.857-2.572 6.572-2.572t6.572 2.572q2.572 2.857 2.572 6.572t-2.572 6.572z" fill="#000000" />
</svg>
