<?xml version="1.0" encoding="utf-8"?>
<!-- Generated by IcoMoon.io -->
<!DOCTYPE svg PUBLIC "-//W3C//DTD SVG 1.1//EN" "http://www.w3.org/Graphics/SVG/1.1/DTD/svg11.dtd">
<svg version="1.1" xmlns="http://www.w3.org/2000/svg" xmlns:xlink="http://www.w3.org/1999/xlink" width="512" height="512" viewBox="0 0 512 512">
<g>
</g>
	<path d="M128 96l-64-64h-32v32l64 64zM160 0h32v64h-32zM288 160h64v32h-64zM320 64v-32h-32l-64 64 32 32zM0 160h64v32h-64zM160 288h32v64h-32zM32 288v32h32l64-64-32-32zM505 441l-318.059-318.059c-9.334-9.334-24.607-9.334-33.941 0l-30.059 30.059c-9.334 9.334-9.334 24.607 0 33.941l318.059 318.059c9.334 9.334 24.607 9.334 33.941 0l30.059-30.059c9.334-9.334 9.334-24.607 0-33.941zM240 272l-96-96 32-32 96 96-32 32z" fill="#000000" />
</svg>
