<?xml version="1.0" encoding="utf-8"?>
<!-- Generated by IcoMoon.io -->
<!DOCTYPE svg PUBLIC "-//W3C//DTD SVG 1.1//EN" "http://www.w3.org/Graphics/SVG/1.1/DTD/svg11.dtd">
<svg version="1.1" xmlns="http://www.w3.org/2000/svg" xmlns:xlink="http://www.w3.org/1999/xlink" width="512" height="512" viewBox="0 0 512 512">
<g>
</g>
	<path d="M480 384h-32v-320h-320v-32c0-17.688 14.312-32 32-32h320c17.688 0 32 14.312 32 32v320c0 17.688-14.312 32-32 32zM416 128v352c0 17.688-14.312 32-32 32h-352c-17.688 0-32-14.312-32-32v-352c0-17.688 14.312-32 32-32h352c17.688 0 32 14.312 32 32zM352 160h-288v96h288v-96zM352 320h-288v128h288v-128zM128 224h-32v-32h32v32zM192 224h-32v-32h32v32zM320 224h-96v-32h96v32z" fill="#000000" />
</svg>
