<?xml version="1.0" encoding="utf-8"?>
<!-- Generated by IcoMoon.io -->
<!DOCTYPE svg PUBLIC "-//W3C//DTD SVG 1.1//EN" "http://www.w3.org/Graphics/SVG/1.1/DTD/svg11.dtd">
<svg version="1.1" xmlns="http://www.w3.org/2000/svg" xmlns:xlink="http://www.w3.org/1999/xlink" width="512" height="512" viewBox="0 0 512 512">
<g>
</g>
	<path d="M501.467 408.938l-230.276-197.38c10.724-20.149 16.809-43.141 16.809-67.558 0-79.529-64.471-144-144-144-14.547 0-28.586 2.166-41.823 6.177l83.195 83.195c12.445 12.445 12.445 32.81 0 45.255l-50.745 50.745c-12.445 12.445-32.81 12.445-45.255 0l-83.195-83.195c-4.011 13.237-6.177 27.276-6.177 41.823 0 79.529 64.471 144 144 144 24.417 0 47.409-6.085 67.558-16.81l197.38 230.276c11.454 13.362 31.008 14.113 43.452 1.669l50.746-50.746c12.444-12.444 11.693-31.997-1.669-43.451z" fill="#000000" />
</svg>
